<?xml version="1.0" encoding="UTF-8"?>
<svg version="1.1" xmlns="http://www.w3.org/2000/svg" width="1500" height="1377">
<path d="M0 0 C1.79818581 0.04849141 3.59632948 0.09856635 5.39443195 0.15005547 C7.32113625 0.14263626 9.24782374 0.12774025 11.17442012 0.10603964 C16.45576863 0.0680943 21.73123617 0.13589244 27.01183498 0.22126669 C32.7104116 0.29477693 38.40866451 0.26983102 44.10758197 0.25692803 C53.97655029 0.2480195 63.84360605 0.30129109 73.71209323 0.39697129 C87.97986883 0.53521476 102.24672093 0.5794135 116.51509367 0.60076714 C139.66478444 0.63796159 162.81338826 0.75091355 185.96251667 0.91191155 C208.44781445 1.06811193 230.9328395 1.18850049 253.41857135 1.26054436 C254.45870246 1.26389828 254.45870246 1.26389828 255.51984631 1.26731995 C262.48362907 1.2897353 269.44741393 1.31142406 276.41120062 1.33258056 C334.78770714 1.51000074 393.16318668 1.80991416 451.53868854 2.19438225 C453.62410493 5.88225108 455.70922962 9.57028476 457.79430377 13.25834709 C458.67521812 14.81615143 458.67521812 14.81615143 459.57392871 16.40542656 C463.60297486 23.53241337 467.61229477 30.66984506 471.60118854 37.81938225 C477.84386888 48.98487683 484.17501335 60.09753514 490.53868854 71.19438225 C493.16546768 75.77669871 495.79077366 80.35985309 498.41368854 84.94438225 C498.92189136 85.83259667 498.92189136 85.83259667 499.4403609 86.73875481 C504.85985337 96.21505268 510.21218162 105.72747451 515.53478229 115.25859123 C521.13350017 125.27713979 526.82936697 135.23858365 532.53868854 145.19438225 C535.16546768 149.77669871 537.79077366 154.35985309 540.41368854 158.94438225 C540.92189136 159.83259667 540.92189136 159.83259667 541.4403609 160.73875481 C546.85985337 170.21505268 552.21218162 179.72747451 557.53478229 189.25859123 C563.13350017 199.27713979 568.82936697 209.23858365 574.53868854 219.19438225 C577.16546768 223.77669871 579.79077366 228.35985309 582.41368854 232.94438225 C582.92189136 233.83259667 582.92189136 233.83259667 583.4403609 234.73875481 C588.85985337 244.21505268 594.21218162 253.72747451 599.53478229 263.25859123 C605.13350017 273.27713979 610.82936697 283.23858365 616.53868854 293.19438225 C619.16546768 297.77669871 621.79077366 302.35985309 624.41368854 306.94438225 C624.92189136 307.83259667 624.92189136 307.83259667 625.4403609 308.73875481 C630.85985337 318.21505268 636.21218162 327.72747451 641.53478229 337.25859123 C646.58412613 346.29406999 651.71025541 355.28391849 656.85948932 364.26274163 C658.77549161 367.6078064 660.68676568 370.95555787 662.59728229 374.30375725 C663.30902394 375.55075169 664.02077527 376.79774061 664.7325362 378.04472405 C665.7751561 379.8713791 666.81766189 381.6980985 667.85967243 383.52510124 C668.83156616 385.22897107 669.80426245 386.93238302 670.77696979 388.6357885 C671.70436969 390.27185051 671.70436969 390.27185051 672.65050495 391.94096428 C673.93113745 394.14754675 675.25285907 396.33069269 676.61046588 398.49076897 C677.58620563 400.0591552 677.58620563 400.0591552 678.58165729 401.659226 C679.17357868 402.58211418 679.76550006 403.50500237 680.37535846 404.45585686 C681.85111469 407.92984586 681.58693162 409.59424962 680.53868854 413.19438225 C679.17858112 416.04911858 679.17858112 416.04911858 677.43321979 419.0264135 C676.46328083 420.69945549 676.46328083 420.69945549 675.47374713 422.40629631 C674.76626107 423.60651135 674.05874066 424.80670615 673.35118854 426.00688225 C672.25103131 427.89659318 671.154196 429.78820779 670.05742633 431.6798864 C669.31049023 432.96759673 668.5624759 434.2546822 667.81340778 435.54115349 C664.26933406 441.63265707 660.83524204 447.78333365 657.41368854 453.94438225 C652.34394164 463.04453489 647.13569604 472.05408426 641.85851276 481.03520256 C636.81196984 489.65550172 631.96987665 498.38205241 627.14440143 507.12748772 C622.49037952 515.53953147 617.68278853 523.850122 612.80821979 532.1357885 C608.43605853 539.59302534 604.21478777 547.12584155 600.03868854 554.69438225 C594.73502992 564.30542457 589.29450816 573.82107086 583.73351276 583.28520256 C579.02492261 591.31586911 574.46209055 599.42177121 569.93126667 607.55375725 C565.49692843 615.50498443 561.00119383 623.41957272 556.47618854 631.31938225 C551.63964307 639.76425391 546.81890503 648.21745509 542.03868854 656.69438225 C537.29394633 665.10518149 532.51950837 673.49869331 527.72618854 681.88188225 C527.39153583 682.46724755 527.05688312 683.05261284 526.71208942 683.65571648 C523.3020185 689.62001384 519.88938185 695.58283737 516.47379291 701.54397637 C514.78629823 704.48949113 513.09976379 707.43555478 511.41368854 710.38188225 C511.08140247 710.9624337 510.7491164 711.54298516 510.40676105 712.14112908 C505.69253348 720.38131503 501.03521186 728.65185248 496.41368854 736.94438225 C491.34531228 746.03855053 486.14207622 755.04408972 480.86730182 764.0198217 C475.78035885 772.70829754 470.88177836 781.49466455 466.03893268 790.32084709 C464.90224337 792.38560603 463.74541948 794.43943638 462.56664157 796.48045933 C461.08796164 799.09539238 459.84182592 801.74277199 458.64634895 804.49777079 C453.46756658 815.69087866 453.46756658 815.69087866 448.63328478 818.17249788 C443.09114455 819.73943766 437.38458174 819.40197682 431.68294513 819.23870903 C429.75624083 819.24612824 427.82955334 819.26102425 425.90295696 819.28272486 C420.62160845 819.3206702 415.34614091 819.25287206 410.0655421 819.16749781 C404.36696548 819.09398757 398.66871257 819.11893348 392.96979511 819.13183647 C383.10082679 819.140745 373.23377103 819.08747341 363.36528385 818.99179322 C349.09750825 818.85354974 334.83065615 818.809351 320.56228341 818.78799736 C297.41259264 818.75080291 274.26398882 818.63785095 251.11486042 818.47685295 C228.62956263 818.32065257 206.14453758 818.20026401 183.65880573 818.12822014 C182.96538499 818.1259842 182.27196425 818.12374825 181.55753077 818.12144455 C174.59374801 818.09902921 167.62996315 818.07734044 160.66617647 818.05618394 C102.28966994 817.87876376 43.9141904 817.57885034 -14.46131146 817.19438225 C-16.61032391 813.44068546 -18.75845865 809.68648805 -20.90586102 805.93187004 C-21.63296907 804.66082513 -22.36029643 803.38990563 -23.08786786 802.1191259 C-27.97161974 793.58869864 -32.80646789 785.03359029 -37.58631146 776.44438225 C-42.16060041 768.24222089 -46.8272195 760.10322207 -51.58631146 752.00688225 C-56.57841087 743.51076628 -61.38346487 734.93436531 -66.06775677 726.26518303 C-69.88299845 719.21572023 -73.82618909 712.24797639 -77.82117474 705.29911858 C-81.75053174 698.45806604 -85.61534291 691.58262133 -89.46131146 684.69438225 C-95.72359893 673.48638845 -102.07442252 662.33170903 -108.46131146 651.19438225 C-111.0880906 646.61206579 -113.71339914 642.02891288 -116.33631146 637.44438225 C-116.8465083 636.5526783 -116.8465083 636.5526783 -117.36701214 635.64296013 C-122.69001568 626.33534334 -127.9472403 616.99222374 -133.17176068 607.62895256 C-137.88547055 599.19305109 -142.67400128 590.80123784 -147.47980511 582.41764885 C-152.23416915 574.12199894 -156.93317986 565.7973497 -161.58631146 557.44438225 C-166.15715812 549.24031511 -170.82726009 541.10315302 -175.58631146 533.00688225 C-180.57758347 524.51217445 -185.38161272 515.93708233 -190.06555951 507.26957756 C-194.38696027 499.28564432 -198.87663324 491.40567684 -203.39881146 483.534226 C-206.59129113 477.97713655 -209.74815333 472.40026501 -212.89881146 466.81938225 C-213.43812298 465.86442864 -213.97743451 464.90947502 -214.5330888 463.92558342 C-216.72499527 460.04355188 -218.91588042 456.16094432 -221.10681927 452.27836663 C-222.20172744 450.33836891 -223.29702314 448.39858987 -224.39270794 446.45903069 C-225.47217725 444.5466525 -226.54984211 442.63325455 -227.6256181 440.71879631 C-230.35841708 435.86549902 -233.13194917 431.04308637 -235.98084271 426.25688225 C-236.82570233 424.82336418 -236.82570233 424.82336418 -237.68762982 423.36088616 C-238.76100342 421.54347853 -239.84591138 419.73281806 -240.94397748 417.93022209 C-241.42149457 417.11762932 -241.89901165 416.30503655 -242.39099896 415.46781975 C-242.81622845 414.76060784 -243.24145794 414.05339592 -243.67957318 413.32475334 C-244.72198329 410.48400673 -244.36971572 409.07041223 -243.46131146 406.19438225 C-242.49255672 404.16523145 -241.44842783 402.17134818 -240.35584271 400.206101 C-240.04030941 399.6349305 -239.72477612 399.06376 -239.39968121 398.4752813 C-238.36465891 396.60686401 -237.31957673 394.74430478 -236.27381146 392.88188225 C-235.54515754 391.57313055 -234.81680839 390.26420912 -234.08875287 388.95512444 C-229.04211679 379.90576834 -223.86130734 370.93792124 -218.60852826 362.00663811 C-213.91151805 354.01035542 -209.3671188 345.93549453 -204.85364544 337.83451897 C-200.41934156 329.88348096 -195.92372644 321.96903411 -191.39881146 314.06938225 C-186.56226599 305.62451059 -181.74152795 297.17130941 -176.96131146 288.69438225 C-172.21656925 280.28358302 -167.44213129 271.89007119 -162.64881146 263.50688225 C-162.31415875 262.92151695 -161.97950604 262.33615166 -161.63471234 261.73304802 C-158.22464142 255.76875066 -154.81200477 249.80592713 -151.39641583 243.84478813 C-149.70892115 240.89927337 -148.02238671 237.95320972 -146.33631146 235.00688225 C-145.83788235 234.13605507 -145.83788235 234.13605507 -145.32938397 233.24763542 C-140.6151564 225.00744947 -135.95783478 216.73691202 -131.33631146 208.44438225 C-126.26505681 199.34504928 -121.05833993 190.33471593 -115.78113568 181.35356194 C-110.73459276 172.73326278 -105.89249957 164.00671209 -101.06702435 155.26127678 C-96.41300244 146.84923303 -91.60541144 138.5386425 -86.73084271 130.252976 C-82.35868218 122.7957404 -78.13736756 115.26294577 -73.96131146 107.69438225 C-68.68482551 98.13143143 -63.26892264 88.66646175 -57.73084271 79.252976 C-53.35867854 71.79573418 -49.13758332 64.2628316 -44.96131146 56.69438225 C-38.62177755 45.21173198 -32.2491161 33.72475018 -25.37085629 22.5530653 C-23.93034622 20.01936372 -22.74825281 17.62216344 -21.5937674 14.96538031 C-16.50284422 3.95193361 -12.23483368 0.04322238 0 0 Z M7.53868854 23.19438225 C12.10211801 33.46209855 16.65633746 43.70749407 21.41368854 53.88188225 C22.53653559 56.29182976 23.65899615 58.70195346 24.78087604 61.112351 C25.07621234 61.74659996 25.37154865 62.38084893 25.67583454 63.03431755 C29.6516678 71.57770597 33.59290159 80.13708901 37.53868854 88.69438225 C44.84637922 104.53967921 52.17927894 120.37303719 59.53868854 136.19438225 C66.66693026 134.74828688 73.45102429 132.70399621 80.34728229 130.40531975 C82.05294612 129.84300652 82.05294612 129.84300652 83.79306781 129.26933342 C86.87774838 128.25202726 89.96122499 127.2311624 93.04432666 126.20908409 C98.32808218 124.45946204 103.61565005 122.72136286 108.90283954 120.98215157 C110.24981971 120.53905203 111.59675346 120.09581138 112.94364154 119.65243202 C124.44472373 115.86707539 135.96904557 112.1583956 147.50868976 108.49229485 C170.74053937 101.11158033 193.89474609 93.50410064 217.04359806 85.86809975 C237.24472551 79.20481201 257.45247286 72.57187749 277.72618854 66.13188225 C300.92037795 58.76416739 324.03576836 51.16117005 347.1465615 43.53675419 C350.8643697 42.31022511 354.58233775 41.08418136 358.30040729 39.85844475 C359.01877954 39.6215877 359.73715179 39.38473065 360.4772929 39.14069611 C375.80834224 34.08791349 391.16874847 29.12746689 406.53868854 24.19438225 C406.53868854 23.86438225 406.53868854 23.53438225 406.53868854 23.19438225 C274.86868854 23.19438225 143.19868854 23.19438225 7.53868854 23.19438225 Z M432.16979206 38.59281975 C431.22799091 38.90223 430.28618976 39.21164025 429.31584918 39.53042656 C428.27692523 39.87328194 427.23800128 40.21613732 426.16759479 40.56938225 C423.92648259 41.30584456 421.68535218 42.0422515 419.44420612 42.77861077 C418.25050403 43.17138207 417.05680194 43.56415337 415.82692707 43.96882683 C409.47709168 46.05756041 403.12558849 48.1411888 396.77306354 50.221726 C396.12486967 50.43402289 395.47667579 50.64631977 394.80883968 50.8650499 C382.50939115 54.89147635 370.18443882 58.83535154 357.85118854 62.75688225 C335.52767714 69.85846711 313.27953253 77.18254461 291.0330466 84.52090889 C269.94606722 91.4764355 248.84671134 98.38078031 227.68331134 105.10109001 C205.86671241 112.03425578 184.1322075 119.21470633 162.39546955 126.39338738 C146.37121654 131.68527015 130.34804558 136.97423936 114.25743854 142.06156975 C113.12666385 142.41938027 111.99588916 142.77719078 110.83084857 143.14584404 C105.7155226 144.76177621 100.59709545 146.36682289 95.47350299 147.95634514 C93.73087539 148.50303292 91.98827869 149.04981926 90.24571979 149.596726 C89.46430622 149.83507164 88.68289264 150.07341728 87.87779987 150.31898552 C86.07894161 150.88665163 84.30505875 151.53251208 82.53868854 152.19438225 C82.04368854 153.18438225 82.04368854 153.18438225 81.53868854 154.19438225 C82.52224323 154.76543694 83.50579792 155.33649163 84.51915729 155.924851 C95.33900063 162.23366623 105.99938189 168.77772411 116.63439167 175.39213616 C121.82264531 178.61167957 127.02478247 181.80864691 132.22618854 185.00688225 C134.43452342 186.36495265 136.64285674 187.72302559 138.85118854 189.081101 C140.50634479 190.09889641 140.50634479 190.09889641 142.19493854 191.13725334 C145.51878379 193.18213653 148.8414255 195.22896091 152.16368854 197.2764135 C162.54331963 203.67181927 172.93143838 210.052012 183.35118854 216.38188225 C191.39784609 221.27053894 199.41800073 226.19965915 207.41930377 231.16215569 C222.6904609 240.63303853 237.99354328 250.05186139 253.35118854 259.38188225 C261.39783472 264.27055792 269.41800053 269.19965903 277.41930377 274.16215569 C292.6904609 283.63303853 307.99354328 293.05186139 323.35118854 302.38188225 C331.40008844 307.27192714 339.4227751 312.20197464 347.42589557 317.16655022 C357.66524921 323.51773491 367.9310876 329.8257644 378.19493854 336.13725334 C381.51878379 338.18213653 384.8414255 340.22896091 388.16368854 342.2764135 C398.54331963 348.67181927 408.93143838 355.052012 419.35118854 361.38188225 C427.39784609 366.27053894 435.41800073 371.19965915 443.41930377 376.16215569 C459.04872211 385.85522536 474.71553903 395.48802883 490.41368854 405.06938225 C491.3764571 405.65840325 492.33922565 406.24742424 493.33116901 406.85429436 C494.22207233 407.39707024 495.11297565 407.93984612 496.03087604 408.49906975 C496.8080196 408.97328362 497.58516315 409.44749748 498.38585651 409.93608147 C500.40170387 411.11431659 502.44614211 412.16086074 504.53868854 413.19438225 C503.79529915 405.45884338 502.49247297 397.87207 501.11559284 390.22636467 C500.8644849 388.81983031 500.6136351 387.41324985 500.36301982 386.00662762 C499.67765448 382.16423414 498.98862274 378.3225061 498.29895318 374.48088318 C497.5566306 370.34230482 496.81770689 366.20311948 496.07834613 362.06401116 C494.63437537 353.98349325 493.18722717 345.90354753 491.73896843 337.82379717 C490.56150878 331.2543838 489.38531902 324.68474421 488.21001422 318.11494499 C488.04259361 317.17908674 487.875173 316.24322849 487.70267904 315.27901089 C487.36286526 313.37946322 487.02305442 311.47991503 486.68324649 309.58036631 C483.35693452 290.98698105 480.02641199 272.39435173 476.69416034 253.80203015 C474.46160607 241.34538971 472.23005637 228.88856988 469.99947 216.43157691 C466.50602543 196.9220136 463.01028939 177.41286207 459.51229376 157.90411425 C458.61988305 152.92687937 457.72779738 147.94958638 456.83598632 142.97224402 C450.51464267 107.69217182 444.17709096 72.41653379 437.53868854 37.19438225 C435.68093093 37.19438225 433.91722126 38.01706687 432.16979206 38.59281975 Z M-9.46131146 39.19438225 C-15.82460953 49.85363962 -21.96236538 60.62408665 -28.00037396 71.47074944 C-32.10721573 78.82810336 -36.31462425 86.11918661 -40.58631146 93.38188225 C-45.53843331 101.80692963 -50.29155364 110.31559642 -54.92932904 118.9170385 C-59.13096685 126.67348213 -63.56548821 134.28012948 -68.03943646 141.88188225 C-72.46361609 149.42331756 -76.73846279 157.03862529 -80.96131146 164.69438225 C-85.74526743 173.36739117 -90.62486962 181.97062709 -95.64881146 190.50688225 C-100.05790503 197.99939538 -104.33543297 205.54222916 -108.46131146 213.19438225 C-113.13847494 221.86898841 -118.0410026 230.38896808 -123.03943646 238.88188225 C-127.463617 246.4233191 -131.73840433 254.03865678 -135.96131146 261.69438225 C-140.66476797 270.22007854 -145.4571543 278.67951845 -150.39881146 287.06938225 C-155.61261082 295.92721103 -160.64246793 304.87184127 -165.58631146 313.88188225 C-170.15471454 322.20641657 -174.73848302 330.5184675 -179.46131146 338.75688225 C-179.92126507 339.56061272 -180.38121869 340.36434319 -180.85511029 341.19242913 C-183.44070997 345.70078999 -186.04407396 350.19850567 -188.65934002 354.6896978 C-190.16434831 357.27766484 -191.66296256 359.86930432 -193.16077435 362.46144158 C-193.89961798 363.73624666 -194.64145809 365.00932 -195.38636029 366.28059441 C-196.42514776 368.0537284 -197.45397012 369.83229797 -198.48084271 371.612351 C-199.08001507 372.64126457 -199.67918744 373.67017815 -200.29651654 374.73027092 C-200.87309002 375.95000603 -200.87309002 375.95000603 -201.46131146 377.19438225 C-201.13131146 377.85438225 -200.80131146 378.51438225 -200.46131146 379.19438225 C-199.76006146 378.48153069 -199.05881146 377.76867913 -198.33631146 377.034226 C-197.37811853 376.06663902 -196.41977707 375.09919912 -195.46131146 374.13188225 C-195.00369427 373.66588616 -194.54607708 373.19989006 -194.07459271 372.71977288 C-191.33906665 369.96551034 -188.5280218 367.35698765 -185.58631146 364.8232885 C-181.33645085 361.14354346 -177.39598664 357.20590655 -173.46131146 353.19438225 C-168.93152433 348.57612272 -164.33171662 344.16240945 -159.43006146 339.940476 C-156.12393045 337.00825267 -153.05213481 333.85027556 -149.96131146 330.69438225 C-146.24541122 326.90025253 -142.51818682 323.19301659 -138.49256146 319.72563225 C-134.26892336 316.08371734 -130.36472983 312.17403926 -126.46131146 308.19438225 C-121.93152433 303.57612272 -117.33171662 299.16240945 -112.43006146 294.940476 C-109.12375595 292.0080979 -106.0541303 288.84854093 -102.96131146 285.69438225 C-98.6617861 281.3485802 -94.35800066 277.13369947 -89.68006146 273.19438225 C-85.6522209 269.56365273 -81.88592731 265.65716898 -78.09021771 261.78617913 C-74.9860537 258.63935747 -71.84249281 255.61102234 -68.49256146 252.72563225 C-64.26892336 249.08371734 -60.36472983 245.17403926 -56.46131146 241.19438225 C-51.93152433 236.57612272 -47.33171662 232.16240945 -42.43006146 227.940476 C-39.12393045 225.00825267 -36.05213481 221.85027556 -32.96131146 218.69438225 C-29.24541122 214.90025253 -25.51818682 211.19301659 -21.49256146 207.72563225 C-17.26892336 204.08371734 -13.36472983 200.17403926 -9.46131146 196.19438225 C-4.93152433 191.57612272 -0.33171662 187.16240945 4.56993854 182.940476 C7.8762425 180.00809927 10.94588645 176.84855588 14.03868854 173.69438225 C18.41386024 169.2719114 22.79501696 164.96780896 27.55431354 160.956101 C32.09130711 156.92817954 36.28560136 152.517833 40.53868854 148.19438225 C38.29172681 140.70450982 35.1255241 133.76927694 31.76061237 126.72880608 C30.06574229 123.18111647 28.38863443 119.62504113 26.71056354 116.06938225 C26.36348346 115.33473747 26.01640338 114.6000927 25.65880573 113.84318596 C22.03803197 106.16332982 18.53447753 98.43171003 15.03868854 90.69438225 C9.83939086 79.20228586 4.5701732 67.74494633 -0.77381146 56.31938225 C-1.26131878 55.27391228 -1.26131878 55.27391228 -1.75867474 54.2073217 C-2.6738108 52.24601555 -3.5923391 50.28633898 -4.51209271 48.32719475 C-5.03456585 47.21231682 -5.557039 46.09743889 -6.09534466 44.94877678 C-7.44405822 42.08237979 -7.44405822 42.08237979 -9.46131146 39.19438225 Z M467.53868854 78.19438225 C470.94122886 98.94910196 474.5376155 119.66357782 478.24955952 140.36491543 C478.98788666 144.48497378 479.724059 148.60541725 480.46048725 152.72581536 C481.72464756 159.797478 482.9899771 166.86893052 484.2561568 173.94023186 C486.2475206 185.06172891 488.23640579 196.18366842 490.2247237 207.30571038 C490.39183526 208.24046637 490.55894682 209.17522236 490.73112237 210.13830429 C491.4104066 213.93796515 492.08968496 217.73762706 492.76893532 221.53729397 C493.79835345 227.29572441 494.82794979 233.05412295 495.85767949 238.81249768 C502.77443494 277.49243416 509.66736306 316.17660117 516.55349338 354.86200005 C517.41504939 359.70209639 518.27670927 364.54217423 519.13838947 369.38224846 C522.27240507 386.98618939 525.40593216 404.59021718 528.53868854 422.19438225 C532.1865663 423.1111344 534.79551047 423.18118865 538.46111286 422.37899834 C539.42575458 422.17290947 540.3903963 421.9668206 541.3842696 421.75448662 C542.43070636 421.52026497 543.47714313 421.28604332 544.5552901 421.04472405 C545.66632099 420.8042434 546.77735187 420.56376274 547.92205036 420.3159948 C551.59339225 419.51849304 555.26134628 418.70647143 558.92931354 417.893601 C561.47554216 417.33582761 564.02191053 416.77869184 566.56841266 416.22216851 C571.90285403 415.05470213 577.2354377 413.87903247 582.56700885 412.69853264 C588.7364006 411.33263724 594.90859381 409.98003415 601.08243573 408.63440824 C607.01993723 407.33995471 612.95528988 406.03592594 618.88975513 404.72762543 C621.41711313 404.1713922 623.9450141 403.61762035 626.47344959 403.0663057 C629.99740496 402.29652728 633.51878193 401.51591651 637.0396651 400.73222405 C638.09419879 400.50407509 639.14873249 400.27592613 640.23522174 400.04086357 C641.66526538 399.71904106 641.66526538 399.71904106 643.12419879 399.39071709 C643.95745811 399.20690326 644.79071743 399.02308943 645.64922702 398.83370548 C647.74303007 398.37228566 647.74303007 398.37228566 648.53868854 396.19438225 C647.57393587 393.92306751 647.57393587 393.92306751 646.06603229 391.37406975 C645.50319538 390.37609368 644.94035846 389.3781176 644.36046588 388.34989983 C643.73865436 387.26732903 643.11684284 386.18475823 642.47618854 385.06938225 C641.84148639 383.95007317 641.20678424 382.83076409 640.5528487 381.67753655 C635.66709407 373.07397395 630.66413907 364.53854823 625.65172565 356.00834709 C621.30316372 348.58094737 617.16019288 341.05857348 613.07726276 333.48271233 C609.3695655 326.63579868 605.48860918 319.90407277 601.53868854 313.19438225 C596.5447863 304.71129067 591.74744209 296.14859339 587.07775104 287.48344475 C583.36973686 280.63637095 579.48875859 273.90432657 575.53868854 267.19438225 C570.5447863 258.71129067 565.74744209 250.14859339 561.07775104 241.48344475 C557.36973477 234.63636708 553.48866624 227.90438396 549.53868854 221.19438225 C544.50234556 212.63673297 539.6526625 204.00160046 534.93273151 195.26591545 C531.11716691 188.21629602 527.17395724 181.24823091 523.17882526 174.29911858 C519.24946921 167.45806769 515.38452627 160.58269325 511.53868854 153.69438225 C506.76836728 145.15325421 501.95148232 136.64131557 497.08214557 128.15629631 C493.14257873 121.28000895 489.27398617 114.36541512 485.41368854 107.44438225 C481.24052243 99.97398469 477.04323077 92.52026883 472.72618854 85.13188225 C472.31159381 84.41741936 471.89699909 83.70295647 471.46984088 82.96684319 C470.52244736 81.35818443 469.53535809 79.77298521 468.53868854 78.19438225 C468.20868854 78.19438225 467.87868854 78.19438225 467.53868854 78.19438225 Z M65.53868854 170.19438225 C65.53868854 338.82438225 65.53868854 507.45438225 65.53868854 681.19438225 C69.12409873 679.76021818 72.18638645 678.36953757 75.51134479 676.49906975 C76.4787862 675.95637444 77.4462276 675.41367913 78.44298542 674.8545385 C80.00629596 673.97088616 80.00629596 673.97088616 81.60118854 673.06938225 C82.69882526 672.45192131 83.79646198 671.83446038 84.92736042 671.1982885 C94.33684933 665.895821 103.71217406 660.53375815 113.08287799 655.16313225 C120.79045168 650.74840012 128.52908698 646.39210211 136.28868854 642.06938225 C144.38598894 637.55679102 152.42148431 632.95299303 160.41368854 628.25688225 C170.01587461 622.61476798 179.72089181 617.18035756 189.47179401 611.80009514 C196.88784706 607.69711203 204.23384029 603.49192246 211.53868854 599.19438225 C221.09815717 593.57041864 230.76163538 588.15783024 240.47228229 582.799851 C247.88815504 578.6969111 255.23393321 574.49172524 262.53868854 570.19438225 C272.17187331 564.52874575 281.9049824 559.06391311 291.68541706 553.65702873 C301.06936112 548.46678524 310.38931245 543.17286128 319.68761432 537.831101 C325.25898886 534.63273699 330.83640887 531.44493358 336.41368854 528.25688225 C337.01156177 527.91504906 337.609435 527.57321587 338.2254256 527.2210241 C347.07492141 522.1620581 355.94088918 517.13295872 364.81993854 512.12602288 C372.96609704 507.52829491 381.08437893 502.8823063 389.20116413 498.2330175 C397.53550818 493.46080936 405.89900753 488.74378367 414.28868854 484.06938225 C423.38521574 478.99984411 432.39340539 473.79588622 441.37071979 468.518601 C448.94560803 464.08258802 456.60094153 459.8062716 464.28868854 455.56938225 C475.53439972 449.37041275 486.59385585 442.9093646 497.53868854 436.19438225 C495.24572777 433.70211382 492.8524965 432.0341852 489.95275104 430.29594475 C488.5731319 429.46353264 488.5731319 429.46353264 487.16564167 428.61430413 C486.17499713 428.02197991 485.1843526 427.42965569 484.16368854 426.81938225 C482.0616947 425.55186812 479.96014113 424.28362362 477.85900104 423.01469475 C476.79713581 422.37435295 475.73527057 421.73401116 474.6412276 421.07426506 C470.08623215 418.31431346 465.56137337 415.50685913 461.03868854 412.69438225 C453.72881662 408.15526564 446.39335956 403.66053226 439.03868854 399.19438225 C430.88572923 394.24249707 422.7586441 389.25138367 414.65270221 384.2229467 C404.41290197 377.87158164 394.14669388 371.56324878 383.88243854 365.25151116 C380.55859329 363.20662797 377.23595158 361.15980359 373.91368854 359.112351 C363.53405745 352.71694523 353.1459387 346.3367525 342.72618854 340.00688225 C334.67727728 335.11685634 326.65460177 330.18678974 318.65148151 325.22221428 C308.41212788 318.87102959 298.14628948 312.5630001 287.88243854 306.25151116 C284.55859329 304.20662797 281.23595158 302.15980359 277.91368854 300.112351 C267.53405745 293.71694523 257.1459387 287.3367525 246.72618854 281.00688225 C238.67727728 276.11685634 230.65460177 271.18678974 222.65148151 266.22221428 C212.41212788 259.87102959 202.14628948 253.5630001 191.88243854 247.25151116 C188.55859329 245.20662797 185.23595158 243.15980359 181.91368854 241.112351 C171.53405745 234.71694523 161.1459387 228.3367525 150.72618854 222.00688225 C142.67727728 217.11685634 134.65460177 212.18678974 126.65148151 207.22221428 C118.64555162 202.25635987 110.6242228 197.31577227 102.59825885 192.38237053 C97.39514345 189.18396215 92.19366348 185.98309507 86.99951923 182.77014214 C84.57643182 181.27143486 82.15236413 179.7743172 79.72823322 178.27729851 C78.56451445 177.55801892 77.4012819 176.83795205 76.23854816 176.11708122 C74.63018985 175.12002753 73.02003243 174.12587773 71.40978229 173.13188225 C70.49124469 172.56340569 69.5727071 171.99492913 68.62633502 171.409226 C66.79720202 170.11055567 66.79720202 170.11055567 65.53868854 170.19438225 Z M35.91368854 182.25688225 C35.24651813 182.88086907 34.57934772 183.50485588 33.89196002 184.14775139 C28.41550202 189.30081925 23.07799328 194.58329771 17.81554401 199.95439202 C14.86858569 202.9447244 11.87699708 205.80634194 8.69103229 208.5420385 C3.89349185 212.6827143 -0.51824075 217.17999419 -4.96131146 221.69438225 C-9.98058655 226.79422356 -15.02176771 231.74621708 -20.45154583 236.40727288 C-24.29440336 239.82439109 -27.85739833 243.5289689 -31.46131146 247.19438225 C-36.3077155 252.12348943 -41.19128765 256.88410436 -46.43396771 261.38969475 C-50.28129203 264.81448056 -53.85145831 268.52292751 -57.46131146 272.19438225 C-62.3077155 277.12348943 -67.19128765 281.88410436 -72.43396771 286.38969475 C-76.28129203 289.81448056 -79.85145831 293.52292751 -83.46131146 297.19438225 C-88.3077155 302.12348943 -93.19128765 306.88410436 -98.43396771 311.38969475 C-102.28129203 314.81448056 -105.85145831 318.52292751 -109.46131146 322.19438225 C-117.88323103 330.76002059 -117.88323103 330.76002059 -122.43006146 334.66313225 C-127.1929766 338.75640982 -131.55845272 343.22085162 -135.96131146 347.69438225 C-140.98058655 352.79422356 -146.02176771 357.74621708 -151.45154583 362.40727288 C-155.29440336 365.82439109 -158.85739833 369.5289689 -162.46131146 373.19438225 C-167.3077155 378.12348943 -172.19128765 382.88410436 -177.43396771 387.38969475 C-181.28129203 390.81448056 -184.85145831 394.52292751 -188.46131146 398.19438225 C-193.94204038 403.76863897 -199.49522591 409.13865308 -205.46131146 414.19438225 C-201.27715264 419.30835414 -196.76622459 423.97058281 -192.04041302 428.57817131 C-189.28940187 431.28203264 -186.68910362 434.05202294 -184.17615521 436.9795385 C-180.01118178 441.79505638 -175.49676938 446.23057453 -170.96131146 450.69438225 C-161.86393818 459.64803715 -161.86393818 459.64803715 -157.99256146 464.16313225 C-153.749431 469.1060589 -149.0994742 473.62544582 -144.46131146 478.19438225 C-139.20099939 483.37618219 -134.06880399 488.56499107 -129.26209271 494.17094475 C-125.68305245 498.19251277 -121.79673277 501.91955211 -117.96131146 505.69438225 C-112.8717022 510.70358694 -107.93126545 515.73461006 -103.27967083 521.15336663 C-99.69288458 525.17935119 -95.80278324 528.91359723 -91.96131146 532.69438225 C-86.8717022 537.70358694 -81.93126545 542.73461006 -77.27967083 548.15336663 C-73.69288458 552.17935119 -69.80278324 555.91359723 -65.96131146 559.69438225 C-60.8717022 564.70358694 -55.93126545 569.73461006 -51.27967083 575.15336663 C-47.69288458 579.17935119 -43.80278324 582.91359723 -39.96131146 586.69438225 C-30.86393818 595.64803715 -30.86393818 595.64803715 -26.99256146 600.16313225 C-22.749431 605.1060589 -18.0994742 609.62544582 -13.46131146 614.19438225 C-8.20099939 619.37618219 -3.06880399 624.56499107 1.73790729 630.17094475 C5.31694755 634.19251277 9.20326723 637.91955211 13.03868854 641.69438225 C18.17879774 646.75328909 23.18236648 651.83299997 27.88146198 657.30571038 C30.59531549 660.39857584 33.4951006 663.29606228 36.41368854 666.19438225 C36.99376667 666.77832756 37.57384479 667.36227288 38.17150104 667.9639135 C40.48136689 670.84704843 40.48136689 670.84704843 43.53868854 672.19438225 C43.53868854 508.51438225 43.53868854 344.83438225 43.53868854 176.19438225 C41.01854258 176.19438225 37.78505371 180.49897542 35.91368854 182.25688225 Z M640.87732685 420.09878594 C639.94508289 420.29928047 639.01283893 420.49977501 638.05234516 420.70634514 C637.03664951 420.92919182 636.02095386 421.1520385 634.97447956 421.38163811 C633.36168109 421.73035721 633.36168109 421.73035721 631.71630085 422.08612114 C628.15754285 422.85659923 624.60008308 423.63290838 621.04259479 424.409226 C618.571723 424.94528777 616.1007695 425.48097303 613.62973773 426.01629692 C607.78444994 427.28352249 601.93996074 428.55436755 596.09585363 429.82702267 C588.81126328 431.41317555 581.52558753 432.99431996 574.23986042 434.57524163 C566.80167332 436.18930105 559.36356865 437.80372461 551.92627704 439.42190605 C550.79421329 439.66809685 549.66214954 439.91428765 548.49578083 440.16793877 C546.38396647 440.62724822 544.27222167 441.08687763 542.16056049 441.5468908 C541.22549671 441.75020516 540.29043293 441.95351952 539.32703388 442.16299492 C538.51828595 442.33905738 537.70953802 442.51511984 536.87628257 442.69651753 C534.43432826 443.21660908 531.98788919 443.70966971 529.53868854 444.19438225 C526.28140762 456.04904172 523.40397257 467.97718699 520.59337604 479.94438225 C520.11034019 481.99392796 519.62712473 484.04343134 519.1437453 486.09289604 C517.83756927 491.63363808 516.53424491 497.17504728 515.2315253 502.71660286 C514.12773485 507.41037532 513.0222768 512.10375443 511.9168576 516.79714352 C502.56999738 556.48407564 493.2625147 596.18029327 483.98229206 635.88285881 C482.91537432 640.44638706 481.84822764 645.00986171 480.78087604 649.5732885 C480.52003915 650.68851765 480.25920227 651.8037468 479.99046123 652.95277077 C476.40943739 668.25864341 472.79948653 683.55741234 469.1633662 698.85028702 C468.43254375 701.92526319 467.70275337 705.00048218 466.97339618 708.0758062 C466.6220368 709.55725955 466.6220368 709.55725955 466.26357925 711.06864125 C465.80010455 713.02295837 465.33667726 714.97728675 464.87329948 716.93162686 C463.54623073 722.5256035 462.21195079 728.11779671 460.87213886 733.7087341 C460.06370191 737.0892152 459.26175547 740.47121061 458.4616431 743.85367066 C458.09261185 745.40736602 457.72073998 746.96038981 457.34583652 748.51267868 C456.83935157 750.61096443 456.3427034 752.71133913 455.84850299 754.81254631 C455.56940586 755.98110161 455.29030872 757.14965691 455.00275409 758.35362297 C454.30201099 761.25941645 454.30201099 761.25941645 455.53868854 764.19438225 C455.92500446 763.49691887 456.31132038 762.79945549 456.70934284 762.08085686 C468.4937061 740.81402205 480.41599801 719.63061144 492.49977863 698.53218132 C497.27209496 690.19775465 501.98933315 681.834234 506.66368854 673.44438225 C511.23459214 665.24034586 515.90463632 657.10315446 520.66368854 649.00688225 C525.65496055 640.51217445 530.4589898 631.93708233 535.14293659 623.26957756 C539.46433735 615.28564432 543.95401032 607.40567684 548.47618854 599.534226 C551.6686683 593.9771364 554.82551313 588.40025536 557.97618854 582.81938225 C558.51840045 581.85935295 559.06061237 580.89932366 559.61925495 579.91020256 C561.78704909 576.0710655 563.95382274 572.23135401 566.11974323 568.39115959 C572.87420426 556.41619457 579.66591224 544.463404 586.49922931 532.53327996 C591.27171711 524.19848159 595.98913488 515.83458987 600.66368854 507.44438225 C605.23459214 499.24034586 609.90463632 491.10315446 614.66368854 483.00688225 C619.64812255 474.52381212 624.44753935 465.96143883 629.1231612 457.30473381 C633.60138316 449.027765 638.25392877 440.85610843 642.94493854 432.6982885 C643.38450885 431.93274651 643.82407917 431.16720452 644.27696979 430.37846428 C645.10029276 428.95326163 645.93071842 427.53213177 646.76915729 426.11576897 C648.84621408 422.87547064 648.84621408 422.87547064 649.53868854 419.19438225 C646.31475696 419.19438225 643.96730227 419.42723322 640.87732685 420.09878594 Z M502.53868854 458.19438225 C501.9425777 458.54516838 501.34646686 458.89595452 500.73229206 459.25737053 C488.19499266 466.6257938 475.6034725 473.87219259 462.89586627 480.94316155 C455.76648376 484.92028042 448.70131011 488.99483918 441.66368854 493.13188225 C432.0630335 498.77337388 422.35916602 504.20650839 412.6099776 509.58647209 C404.15117042 514.26681812 395.79032214 519.09624559 387.45665729 523.9951635 C380.36707706 528.15338493 373.22062759 532.19804355 366.03868854 536.19438225 C357.81665953 540.77004798 349.652945 545.43020677 341.53868854 550.19438225 C332.31433754 555.60888924 323.01854382 560.88068919 313.67662799 566.08940178 C304.54731112 571.18062834 295.4677394 576.354807 286.40001667 581.55473381 C281.52180627 584.35013151 276.639346 587.138091 271.75734699 589.92686516 C268.76632526 591.63553725 265.77556793 593.34467199 262.78478229 595.05375725 C261.57368328 595.74581673 260.36258302 596.43787402 259.15148151 597.12992913 C258.5532558 597.47177239 257.95503009 597.81361565 257.33867633 598.1658178 C224.03868855 617.19438225 224.03868855 617.19438225 222.28873432 618.19435173 C221.12191005 618.86111136 219.9550908 619.52787975 218.78827655 620.19465691 C215.87406208 621.85997313 212.95976112 623.52513762 210.04528034 625.18998772 C204.7659319 628.20592831 199.4872491 631.22300566 194.21175373 634.2456823 C191.25865838 635.93766065 188.30505865 637.62875689 185.35118854 639.31938225 C184.47968158 639.81821923 184.47968158 639.81821923 183.59056842 640.32713372 C175.35083703 645.04108124 167.08072012 649.6980622 158.78868854 654.31938225 C149.65312705 659.41157057 140.60255388 664.63391539 131.58361042 669.92948967 C123.20492345 674.83659263 114.74943448 679.59852596 106.26134479 684.31352288 C99.30025375 688.18440995 92.40474789 692.15735155 85.53868854 696.19438225 C86.32748523 698.33911468 86.32748523 698.33911468 88.26943958 698.84310204 C89.02912792 699.03173569 89.78881626 699.22036934 90.57152545 699.41471916 C91.44327034 699.63542297 92.31501522 699.85612677 93.21317661 700.08351856 C94.1797557 700.31926374 95.1463348 700.55500891 96.14220417 700.79789788 C97.66601766 701.17982843 97.66601766 701.17982843 99.22061527 701.56947476 C102.62681322 702.42106618 106.03581831 703.26082232 109.44493854 704.10063225 C111.84409926 704.69787008 114.24308297 705.29581939 116.64189899 705.89444023 C122.42915571 707.33665925 128.21824855 708.77127541 134.00824463 710.2024411 C140.72058791 711.86201075 147.43058134 713.53098688 154.14049184 715.20036024 C170.2696872 719.21268197 186.40341614 723.20657047 202.53868854 727.19438225 C204.05361392 727.56884609 204.05361392 727.56884609 205.59914386 727.95087487 C219.44101389 731.37211081 233.28418859 734.78805055 247.13063419 738.19072491 C269.62356396 743.71837075 292.09688535 749.32260153 314.56529987 754.94902092 C320.20910152 756.36217761 325.85331625 757.77367852 331.49767292 759.18461663 C332.4106892 759.41285118 333.32370548 759.64108574 334.26438892 759.8762365 C338.8034925 761.01085827 343.34264447 762.14528624 347.88182819 763.27958733 C356.35820254 765.39796133 364.83402216 767.51848773 373.30821979 769.64555413 C379.95698861 771.31434631 386.60728772 772.97684955 393.25983799 774.6305061 C396.57631569 775.45509552 399.89194265 776.2827681 403.20555866 777.11879021 C406.76764615 778.01588697 410.33237714 778.90156164 413.89806354 779.784226 C415.44904743 780.17925316 415.44904743 780.17925316 417.03136432 780.58226067 C417.97189655 780.8125396 418.91242877 781.04281853 419.88146198 781.28007561 C420.69081195 781.4824131 421.50016193 781.6847506 422.33403766 781.89321953 C424.70644753 782.21729869 426.27863798 781.93120523 428.53868854 781.19438225 C441.48099697 726.27749363 454.39963664 671.35518928 467.21037757 616.40743786 C468.50168602 610.86887337 469.79349046 605.33042466 471.08556354 599.7920385 C471.47148449 598.13770459 471.47148449 598.13770459 471.86520183 596.4499498 C475.72683697 579.90122004 479.61819817 563.35961686 483.5255487 546.82163453 C484.60876002 542.2364701 485.69055905 537.65097437 486.77138507 533.06524712 C487.22336922 531.14758805 487.22336922 531.14758805 487.68448436 529.1911884 C488.2874303 526.63265364 488.89030175 524.07410134 489.49309719 521.51553112 C491.25639255 514.03374392 493.02677517 506.5536784 494.80226886 499.07477719 C495.89412939 494.46819207 496.97936994 489.86006652 498.06275928 485.25148255 C498.56897743 483.10443254 499.07803439 480.95804968 499.59005725 478.81237656 C500.28816679 475.88540533 500.97642267 472.95628898 501.6622237 470.0264135 C501.86972436 469.1671026 502.07722503 468.30779169 502.2910136 467.42244107 C503.41165289 462.79521936 503.41165289 462.79521936 502.53868854 458.19438225 Z M-183.46131146 471.19438225 C-182.20057272 474.47194277 -180.80802044 477.56582308 -179.13318646 480.6514135 C-178.67041302 481.50412834 -178.20763958 482.35684319 -177.73084271 483.23539788 C-177.2293974 484.14998772 -176.72795208 485.06457756 -176.21131146 486.00688225 C-175.6840849 486.97174553 -175.15685833 487.93660881 -174.61365521 488.93071038 C-170.11353808 497.11417865 -165.41569726 505.17378857 -160.67957318 513.22221428 C-156.25043983 520.77406351 -152.01931401 528.41675503 -147.85755169 536.11845452 C-143.53218384 544.10921794 -139.03869664 551.99605198 -134.51209271 559.87406975 C-131.38376953 565.31926022 -128.29541658 570.78655932 -125.21131146 576.25688225 C-120.01053905 585.47693357 -114.76250382 594.6694404 -109.50104535 603.85493523 C-104.72847181 612.18991944 -100.01096425 620.5539967 -95.33631146 628.94438225 C-90.76540786 637.14841864 -86.09536368 645.28561004 -81.33631146 653.38188225 C-76.34503945 661.87659005 -71.5410102 670.45168217 -66.85706341 679.11918694 C-62.53566265 687.10312018 -58.04598968 694.98308766 -53.52381146 702.8545385 C-50.3313317 708.4116281 -47.17448687 713.98850914 -44.02381146 719.56938225 C-43.48159955 720.52941155 -42.93938763 721.48944084 -42.38074505 722.47856194 C-40.21295091 726.317699 -38.04617726 730.15741049 -35.88025677 733.99760491 C-26.79940249 750.097026 -17.64427503 766.1530537 -8.46131146 782.19438225 C-5.75328867 778.93561236 -3.46818512 775.69131519 -1.38709271 772.002976 C-0.81064007 770.98993401 -0.23418744 769.97689202 0.35973346 768.93315178 C0.97566364 767.84373284 1.59159381 766.75431389 2.22618854 765.63188225 C7.41423706 756.54429498 12.69812624 747.52717226 18.14537799 738.59236199 C19.22175158 736.82666072 20.29548542 735.05937665 21.36876667 733.29179436 C24.65940605 727.87897707 27.97651343 722.48499232 31.35118854 717.12406975 C31.92522418 716.20029534 32.49925983 715.27652092 33.09069049 714.32475334 C34.15141052 712.6187976 35.22477321 710.92061321 36.31285846 709.23197991 C36.77281208 708.48738518 37.23276569 707.74279045 37.70665729 706.97563225 C38.11166461 706.33690178 38.51667194 705.69817131 38.93395221 705.04008538 C39.76957958 703.13727884 39.76957958 703.13727884 38.74571979 701.06059319 C37.45228032 699.06078508 36.08308978 697.57720447 34.35118854 695.94438225 C31.88188521 693.6080859 29.63520304 691.16342621 27.42540729 688.58500725 C23.04390633 683.53798396 18.2977496 678.88241255 13.53868854 674.19438225 C8.28860939 669.02266249 3.16797082 663.84399015 -1.62928021 658.24906975 C-5.37820353 654.04452035 -9.44975736 650.14606241 -13.46131146 646.19438225 C-18.71139061 641.02266249 -23.83202918 635.84399015 -28.62928021 630.24906975 C-32.37820353 626.04452035 -36.44975736 622.14606241 -40.46131146 618.19438225 C-45.71139061 613.02266249 -50.83202918 607.84399015 -55.62928021 602.24906975 C-59.37820353 598.04452035 -63.44975736 594.14606241 -67.46131146 590.19438225 C-72.71139061 585.02266249 -77.83202918 579.84399015 -82.62928021 574.24906975 C-86.37820353 570.04452035 -90.44975736 566.14606241 -94.46131146 562.19438225 C-99.71139061 557.02266249 -104.83202918 551.84399015 -109.62928021 546.24906975 C-113.37820353 542.04452035 -117.44975736 538.14606241 -121.46131146 534.19438225 C-131.09041941 524.70899233 -131.09041941 524.70899233 -134.93006146 520.22563225 C-139.32274074 515.10255431 -144.15852704 510.42923478 -148.96131146 505.69438225 C-154.41206655 500.32072412 -159.7648591 494.95582154 -164.74549115 489.14164788 C-167.94990398 485.50499495 -171.40075881 482.11095395 -174.83631146 478.69438225 C-175.55947552 477.967351 -176.28263958 477.24031975 -177.02771771 476.49125725 C-177.71478802 475.805476 -178.40185833 475.11969475 -179.10974896 474.41313225 C-179.73027142 473.79373772 -180.35079388 473.17434319 -180.99012005 472.53617913 C-182.25258902 471.08207091 -182.25258902 471.08207091 -183.46131146 471.19438225 Z M59.53868854 713.19438225 C58.02461599 714.99246502 58.02461599 714.99246502 56.67540729 717.4170385 C56.12586383 718.33573723 55.57632038 719.25443596 55.01012409 720.20097405 C54.42142536 721.20942375 53.83272663 722.21787346 53.22618854 723.25688225 C51.95564058 725.38986476 50.68479949 727.52267269 49.41368854 729.65531975 C48.76657917 730.74941155 48.11946979 731.84350334 47.45275104 732.97074944 C44.58539731 737.79989978 41.65539616 742.59009678 38.72618854 747.38188225 C34.81475844 753.80086954 30.91269219 760.22546755 27.01915729 766.65531975 C25.86245236 768.56442625 24.70566007 770.47347979 23.54885089 772.38252312 C22.80029044 773.61853232 22.05221216 774.85483368 21.30464923 776.09144646 C20.25624394 777.82569453 19.20608843 779.55888416 18.15587604 781.2920385 C17.25264606 782.78489372 17.25264606 782.78489372 16.33116901 784.30790764 C15.04217531 786.38360535 13.69511872 788.42365536 12.31261432 790.43827873 C10.35828169 792.92840259 10.35828169 792.92840259 10.53868854 795.19438225 C133.95868854 795.19438225 257.37868854 795.19438225 384.53868854 795.19438225 C380.83393662 793.34200629 377.72832866 792.36256069 373.7349776 791.35697991 C373.0515718 791.18354404 372.368166 791.01010817 371.66405094 790.83141667 C369.37857281 790.2526332 367.0914747 789.68053816 364.80431354 789.10844475 C363.16945071 788.69596262 361.53468739 788.28308585 359.90001667 787.86984307 C355.46056339 786.74885688 351.01964728 785.63376897 346.57843769 784.51976448 C342.83518863 783.58000073 339.09283619 782.63669497 335.35049808 781.69331127 C306.66743662 774.4628275 277.96941381 767.29181678 249.26902759 760.13045651 C227.6480041 754.73511647 206.03934683 749.29334799 184.44197834 743.80411202 C158.31394057 737.1640211 132.17624932 730.56283242 106.02660358 724.00831658 C102.21687496 723.05330704 98.4075689 722.0966392 94.59862506 721.13850456 C90.13537502 720.01589595 85.67127363 718.8967402 81.20647418 717.78031021 C79.55463939 717.36668123 77.90310402 716.95185443 76.25188434 716.53577667 C73.9898965 715.96604825 71.72685929 715.40069621 69.46349323 714.83647209 C68.19205463 714.51770104 66.92061603 714.19892998 65.61064899 713.87049919 C62.57462332 713.08690805 62.57462332 713.08690805 59.53868854 713.19438225 Z " fill="#ED1602" transform="translate(531.4613114595413,-2.1943822503089905)"/>
<path d="M0 0 C1.03582942 -0.00560927 2.07165885 -0.01121854 3.13887705 -0.01699778 C6.62760625 -0.03097346 10.11563267 -0.01634263 13.604352 -0.00196791 C16.1344289 -0.00613875 18.66450341 -0.01206247 21.19457257 -0.01958537 C26.7219313 -0.03195785 32.24907575 -0.03182862 37.77643359 -0.02085119 C46.05104316 -0.00449181 54.32552462 -0.01117743 62.60013707 -0.02238176 C76.70167625 -0.04079651 90.80315778 -0.04017459 104.90470219 -0.02925825 C119.1987128 -0.01826025 133.49268545 -0.01592621 147.78669834 -0.02420759 C148.68890827 -0.02472428 149.59111819 -0.02524097 150.52066781 -0.02577332 C154.1951172 -0.02790636 157.86956654 -0.03010118 161.54401585 -0.03237442 C195.7843449 -0.05354272 230.0246485 -0.05496174 264.26498127 -0.04378462 C265.78752845 -0.04328785 265.78752845 -0.04328785 267.34083416 -0.04278104 C268.35748339 -0.04244932 269.37413262 -0.0421176 270.4215894 -0.04177583 C301.37099703 -0.03169065 332.32039413 -0.02907401 363.26980305 -0.03386641 C365.34080929 -0.03417632 367.41181554 -0.03448495 369.48282178 -0.03479229 C377.80494592 -0.03603411 386.12707005 -0.03730877 394.44919417 -0.03863134 C417.71423122 -0.04229971 440.97926831 -0.04458187 464.24430561 -0.04577589 C465.83357253 -0.04585777 465.83357253 -0.04585777 467.45494585 -0.04594129 C501.22503555 -0.04757886 534.99512159 -0.0430685 568.76521015 -0.03437757 C569.860814 -0.03409658 570.95641784 -0.03381558 572.0852218 -0.03352607 C589.87809394 -0.02894606 607.67096601 -0.02406831 625.46383806 -0.01916538 C696.03626502 0.00026057 766.60866162 -0.00064106 837.18108845 -0.02008772 C854.96489681 -0.02497232 872.74870517 -0.02981646 890.53251362 -0.03437757 C891.62746756 -0.03465937 892.7224215 -0.03494116 893.85055587 -0.03523149 C927.58484378 -0.0438538 961.31912917 -0.04751379 995.05341816 -0.04577589 C996.11215538 -0.04572155 997.17089261 -0.04566722 998.26171278 -0.04561123 C1021.50072741 -0.04436142 1044.73974178 -0.04182707 1067.97875616 -0.03813388 C1076.29352403 -0.03681726 1084.6082919 -0.03556495 1092.92305978 -0.03433103 C1094.99163402 -0.03402148 1097.06020825 -0.03370656 1099.12878249 -0.03338625 C1130.07148931 -0.02860816 1161.01418427 -0.03268487 1191.95688961 -0.04278104 C1192.97192106 -0.04311222 1193.98695252 -0.0434434 1195.0327425 -0.04378462 C1196.04590865 -0.04411535 1197.05907481 -0.04444608 1198.10294296 -0.04478683 C1232.24271883 -0.05580925 1266.38246414 -0.05178259 1300.52223563 -0.03066164 C1304.18516553 -0.02845214 1307.84809546 -0.02630533 1311.51102543 -0.02420759 C1312.40999525 -0.02368676 1313.30896506 -0.02316594 1314.23517639 -0.02262933 C1328.49324919 -0.01472715 1342.75128411 -0.02024611 1357.0093535 -0.03128362 C1371.01534078 -0.04184199 1385.02126386 -0.03819222 1399.02724296 -0.01922726 C1407.24744529 -0.0085223 1415.467472 -0.00882821 1423.68766609 -0.02515365 C1429.77727496 -0.03603384 1435.86666037 -0.02623534 1441.95625995 -0.00812855 C1444.41419133 -0.00407664 1446.87214497 -0.00682486 1449.33005883 -0.01695231 C1452.65294968 -0.02967968 1455.97487826 -0.01799402 1459.29772377 0 C1460.25502954 -0.00956297 1461.21233531 -0.01912594 1462.19865034 -0.02897869 C1468.19715776 0.03753714 1471.72290006 1.02307843 1476.64886189 4.50139666 C1479.03988851 7.41221168 1479.12884043 10.75007513 1479.03167439 14.47014666 C1478.32383919 18.22600685 1476.42318681 19.91202673 1473.64886189 22.50139666 C1468.8701156 25.18467245 1463.88162657 24.77907677 1458.55779415 24.75324565 C1457.52578552 24.75617452 1456.4937769 24.75910338 1455.43049528 24.762121 C1451.94290864 24.76954739 1448.45549484 24.76262689 1444.96790886 24.75587225 C1442.44327362 24.75826018 1439.91863908 24.76152412 1437.39400598 24.76558885 C1431.87241591 24.77244144 1426.35087868 24.77302428 1420.82928742 24.76819936 C1412.56324622 24.76101185 1404.29723841 24.7653129 1396.03119812 24.77188071 C1381.945037 24.7827305 1367.85888923 24.78403233 1353.77272511 24.78018236 C1339.49239667 24.77631046 1325.21207821 24.77675423 1310.9317503 24.78249216 C1310.03071716 24.78285099 1309.12968402 24.78320981 1308.20134684 24.78357951 C1304.53174472 24.78505437 1300.86214261 24.78655876 1297.19254052 24.78810098 C1259.91189603 24.80375033 1222.63125839 24.80641338 1185.35061121 24.80394492 C1180.19650181 24.80360648 1175.04239241 24.80328438 1169.88828301 24.80297923 C1168.8646076 24.80291819 1167.84093218 24.80285714 1166.7862363 24.80279425 C1144.11755478 24.80152329 1121.44887421 24.80412202 1098.78019298 24.8075053 C1093.60684492 24.80827603 1088.43349686 24.80902076 1083.2601488 24.80977031 C1081.18393972 24.810072 1079.10773063 24.81037388 1077.03152155 24.81067595 C1075.48783336 24.81090047 1075.48783336 24.81090047 1073.91295955 24.81112953 C1071.83136351 24.81143306 1069.74976747 24.81173774 1067.66817143 24.81204357 C1008.58786989 24.82071915 949.50756918 24.82535864 890.42726707 24.82109594 C889.3328178 24.82101789 888.23836853 24.82093983 887.11075412 24.82085941 C874.90593741 24.81998658 862.70112069 24.81905731 850.49630398 24.81810877 C849.39434718 24.81802327 848.29239037 24.81793776 847.15704094 24.81784966 C837.99960881 24.81713878 837.99960881 24.81713878 833.78779882 24.81680743 C763.29071638 24.81127068 692.79364704 24.81881551 622.29656696 24.8375783 C604.53251142 24.84230032 586.76845587 24.84698074 569.00440025 24.85141516 C567.91067144 24.85168848 566.81694262 24.8519618 565.6900705 24.85224341 C531.99456618 24.86061133 498.29906294 24.86529405 464.60355759 24.86612272 C463.01731789 24.86616227 463.01731789 24.86616227 461.39903295 24.86620262 C438.18750025 24.86674334 414.97596764 24.86637109 391.76443497 24.86516291 C383.45950535 24.86473726 375.15457572 24.86437214 366.84964609 24.86403347 C364.78350623 24.86394816 362.71736637 24.86385923 360.65122652 24.86376665 C327.6950777 24.86231639 294.73893776 24.86945367 261.78279107 24.88077061 C227.67963969 24.8924056 193.57650419 24.89300086 159.47335274 24.88092718 C155.81469335 24.87967529 152.15603395 24.87847181 148.49737453 24.87730646 C147.59944944 24.87701617 146.70152434 24.87672587 145.77638939 24.87642678 C131.53207625 24.87209361 117.28778561 24.87784571 103.04347601 24.88774665 C89.05261717 24.8972607 75.06179321 24.8961401 61.07093643 24.88354043 C52.85849353 24.87646565 44.64615064 24.8776708 36.43371477 24.89088881 C30.35161015 24.89976947 24.26962967 24.89315901 18.1875277 24.88029924 C15.73130445 24.87755302 13.27506929 24.87991823 10.81885717 24.88780638 C7.50080949 24.89774157 4.1833035 24.88940208 0.86527878 24.87629348 C-0.57281983 24.88722902 -0.57281983 24.88722902 -2.03997095 24.89838548 C-8.50122055 24.84522063 -12.82759949 23.82570855 -17.72613811 19.31389666 C-20.25118143 14.94362938 -20.01923283 11.17377553 -18.78863811 6.25139666 C-13.73798334 0.10277345 -7.3624794 -0.0735472 0 0 Z " fill="#EC1602" transform="translate(20.3511381149292,1167.4986033439636)"/>
<path d="M0 0 C-0.66 6.27 -1.32 12.54 -2 19 C-9.1875 20.8125 -9.1875 20.8125 -11.42260742 21.36254883 C-16.52226904 22.68687689 -20.62640006 24.01591119 -23.6875 28.4375 C-27.95201296 40.01260661 -27.58193814 52.87964576 -28.0625 65.0625 C-28.14576884 67.02728935 -28.22967611 68.99205174 -28.31420898 70.95678711 C-28.68010169 79.56374212 -29.01421168 88.1716913 -29.3125 96.78125 C-29.37812134 98.66058228 -29.37812134 98.66058228 -29.44506836 100.57788086 C-29.52135391 102.84154751 -29.5927587 105.10538582 -29.65844727 107.36938477 C-29.68994873 108.35221436 -29.7214502 109.33504395 -29.75390625 110.34765625 C-29.78979858 111.60074585 -29.78979858 111.60074585 -29.82641602 112.87915039 C-30 115 -30 115 -31 118 C-19.70485803 117.93788752 -8.40993013 117.86017347 2.88497829 117.76428509 C8.13367016 117.72017923 13.38229488 117.68080561 18.63110352 117.65356445 C43.57376967 117.52040019 68.20750409 116.88286383 93 114 C93.17831218 104.87163359 93.34415563 95.74314529 93.49477577 86.61427975 C93.56511755 82.37382128 93.639498 78.13351955 93.72363281 73.89331055 C93.80491195 69.78909 93.87489766 65.68480841 93.93757248 61.58026314 C93.9631789 60.02679092 93.99262159 58.47337626 94.02626419 56.9200573 C94.19237124 49.13555175 94.1543001 41.42288255 93.31396484 33.67407227 C93.18613617 32.48362808 93.0583075 31.2931839 92.92660522 30.06666565 C91.77929081 26.26954731 90.30015313 25.10186558 87 23 C84.99359699 22.31797197 84.99359699 22.31797197 82.9375 22.25 C82.174375 22.19457031 81.41125 22.13914062 80.625 22.08203125 C75.74855211 21.92964225 70.87790349 21.92571721 66 22 C64.76391871 19.52783743 65.08489554 18.55779331 65.55859375 15.8671875 C65.69716797 15.06152344 65.83574219 14.25585938 65.97851562 13.42578125 C66.20571289 12.16314453 66.20571289 12.16314453 66.4375 10.875 C66.58509766 10.02550781 66.73269531 9.17601562 66.88476562 8.30078125 C67.25071842 6.19950389 67.62461468 4.09961279 68 2 C68.70505173 2.00444122 69.41010345 2.00888245 70.13652039 2.01345825 C76.88466596 2.05406216 83.63279257 2.08424591 90.38103008 2.10362434 C93.84774303 2.11392284 97.31435247 2.12781567 100.78100586 2.15087891 C116.20734034 2.25087547 131.45229337 2.15672723 146.77449036 0.18161011 C149.84006585 -0.06855259 152.92423432 0 156 0 C155.67 5.94 155.34 11.88 155 18 C151.30928385 19.23023872 147.73375258 20.35779177 144 21.375 C139.72407128 22.68671347 136.33964739 23.90471705 133 27 C129.78905771 33.56496493 129.41957156 40.49525693 129.12109375 47.67578125 C129.06412827 48.80919449 129.00716278 49.94260773 128.94847107 51.11036682 C128.76491466 54.84391142 128.60061047 58.57801038 128.4375 62.3125 C128.3138832 64.94745516 128.18968696 67.58238319 128.06494141 70.21728516 C126.35661221 106.83458596 125.20825977 143.47800058 124.375 180.125 C124.35435486 181.02345642 124.33370972 181.92191284 124.31243896 182.84759521 C124.11076211 191.81585422 123.96346748 200.7833009 123.93359375 209.75390625 C123.92923309 210.47067535 123.92487244 211.18744446 123.92037964 211.92593384 C123.59697901 224.18361346 123.59697901 224.18361346 128.39453125 234.82421875 C132.21199997 238.01211991 134.9469328 238.12209679 139.76171875 238.09765625 C141.43911133 238.09282227 141.43911133 238.09282227 143.15039062 238.08789062 C144.31763672 238.07951172 145.48488281 238.07113281 146.6875 238.0625 C147.86634766 238.05798828 149.04519531 238.05347656 150.25976562 238.04882812 C153.17322789 238.03703273 156.08658863 238.0205727 159 238 C161.23606798 244.70820393 157.53392998 252.0973151 156 259 C124.32 259 92.64 259 60 259 C63 242 63 242 64 240 C67.24158466 239.31239113 70.4678848 238.79121544 73.74609375 238.3203125 C79.43910164 237.39084182 84.60915139 235.81756175 88.48828125 231.24609375 C93.55559546 220.12682133 93.32936091 208.27770327 93.4140625 196.30078125 C93.43280858 194.61255483 93.45238446 192.92433745 93.4727478 191.23612976 C93.52371207 186.8288001 93.563527 182.42144018 93.60089111 178.01397705 C93.64115677 173.50208268 93.69214526 168.99031028 93.7421875 164.47851562 C93.83852305 155.65242759 93.92306104 146.82627834 94 138 C81.87475919 138.08047023 69.74984339 138.1855904 57.625 138.3125 C56.28818617 138.32646379 56.28818617 138.32646379 54.924366 138.34070969 C28.92659206 138.61932993 3.08174334 139.24242416 -22.81469727 141.74047852 C-25.56410841 141.96448588 -28.24391087 142.05176824 -31 142 C-31.79719196 174.43281496 -31.79719196 174.43281496 -32.17724609 206.87234497 C-32.18723565 208.88425867 -32.20676944 210.89611785 -32.2265625 212.90795898 C-32.46705111 224.7204081 -32.46705111 224.7204081 -27.5 235 C-23.74684846 238.00252123 -21.87532598 238.12075401 -17.1171875 238.09765625 C-15.95058594 238.09443359 -14.78398438 238.09121094 -13.58203125 238.08789062 C-12.35871094 238.07951172 -11.13539063 238.07113281 -9.875 238.0625 C-8.02841797 238.05573242 -8.02841797 238.05573242 -6.14453125 238.04882812 C-3.09630608 238.0370133 -0.04817686 238.02054028 3 238 C2.88256381 239.62556413 2.75550539 241.25043288 2.625 242.875 C2.55539062 243.77992188 2.48578125 244.68484375 2.4140625 245.6171875 C1.86136958 250.13258435 0.93743346 254.55077115 0 259 C-0.68142059 258.99555878 -1.36284119 258.99111755 -2.06491089 258.98654175 C-8.62019229 258.94576229 -15.17543622 258.91567006 -21.73081779 258.89637566 C-25.09764148 258.88612151 -28.46427609 258.87114519 -31.83105469 258.84912109 C-45.67414354 258.76098158 -59.44799049 258.83295323 -73.2578125 259.8828125 C-74.28550751 259.96079071 -75.31320251 260.03876892 -76.37203979 260.11911011 C-83.00205131 260.68452244 -89.47605753 261.69672961 -96 263 C-95.69215623 260.04111327 -95.37894426 257.08296833 -95.0625 254.125 C-94.97548828 253.28324219 -94.88847656 252.44148438 -94.79882812 251.57421875 C-94.71181641 250.76855469 -94.62480469 249.96289062 -94.53515625 249.1328125 C-94.456604 248.38918457 -94.37805176 247.64555664 -94.29711914 246.87939453 C-94 245 -94 245 -93 243 C-90.48381586 242.15534455 -87.99003879 241.40301884 -85.4375 240.6875 C-74.29962949 237.50766233 -74.29962949 237.50766233 -66.625 229.3125 C-62.44724578 218.93908394 -62.70753519 208.27975324 -62.7253418 197.28466797 C-62.72098851 195.50309029 -62.71580332 193.72151447 -62.70985413 191.93994141 C-62.69652315 187.12607907 -62.69587856 182.31229552 -62.69841743 177.49841833 C-62.69949057 173.47243248 -62.6945953 169.44646236 -62.689812 165.42047989 C-62.6787385 155.92239769 -62.67826808 146.42435505 -62.68432617 136.92626953 C-62.69037281 127.13888255 -62.67803249 117.35163908 -62.6567561 107.56427658 C-62.63913155 99.1461759 -62.63313986 90.72812089 -62.63639385 82.31000245 C-62.63820455 77.28857713 -62.63559117 72.26725434 -62.62167931 67.24584579 C-62.60909073 62.52615155 -62.61105482 57.80668122 -62.62409019 53.08699036 C-62.62645279 51.35845488 -62.62373265 49.62990359 -62.61546707 47.90138626 C-62.60497143 45.53538913 -62.61312207 43.17013958 -62.6257782 40.8041687 C-62.61471677 39.78712571 -62.61471677 39.78712571 -62.60343188 38.7495364 C-62.66184909 33.5312979 -63.85353833 29.69151062 -66 25 C-72.74483979 20.50344014 -82.18802754 21.89282355 -90 22 C-91.32675617 17.47497068 -90.57249199 13.67874099 -89.5625 9.1875 C-89.41490234 8.49462891 -89.26730469 7.80175781 -89.11523438 7.08789062 C-88.75224388 5.39003185 -88.37731777 3.69473237 -88 2 C-86.87605331 2.00666183 -86.87605331 2.00666183 -85.72940063 2.01345825 C-78.58296954 2.05394125 -71.43659594 2.08418709 -64.29007912 2.10362434 C-60.61814002 2.11395389 -56.94629756 2.12790829 -53.27441406 2.15087891 C-31.82081449 2.3489291 -31.82081449 2.3489291 -10.47412109 0.43310547 C-7 0 -7 0 0 0 Z " fill="#ED1602" transform="translate(884,878)"/>
<path d="M0 0 C0.4633374 1.72827026 0.4633374 1.72827026 0.93603516 3.49145508 C16.39102631 60.99510087 33.16172712 118.19069795 51 175 C51.30850891 175.98480347 51.61701782 176.96960693 51.93487549 177.98425293 C53.82337378 184.00763072 55.72799696 190.0255441 57.65454102 196.03686523 C58.24814544 197.89237786 58.838455 199.74894862 59.42504883 201.60668945 C64.84303032 220.89213878 64.84303032 220.89213878 78 235 C85.38507396 238.18468089 93.07479472 239.81433937 101 241 C102.56454159 245.02014661 101.46223974 248.69925681 100.5625 252.75 C100.41490234 253.44738281 100.26730469 254.14476562 100.11523438 254.86328125 C99.75131967 256.5772021 99.37670932 258.28884581 99 260 C98.24056091 259.99333817 97.48112183 259.98667633 96.69866943 259.97981262 C87.04919322 259.89909037 77.3997566 259.84466833 67.75 259.8125 C66.98504086 259.80993195 66.22008171 259.80736389 65.43194199 259.80471802 C42.16673608 259.735658 19.12426784 260.15889619 -4 263 C-4.90175344 258.20444563 -4.83801215 254.46054637 -4.0625 249.625 C-3.77052734 247.75714844 -3.77052734 247.75714844 -3.47265625 245.8515625 C-3.31667969 244.91054687 -3.16070312 243.96953125 -3 243 C-2.38592285 242.93006836 -1.7718457 242.86013672 -1.13916016 242.78808594 C1.70076953 242.45636082 4.53767668 242.10329957 7.375 241.75 C8.34050781 241.64042969 9.30601562 241.53085938 10.30078125 241.41796875 C16.78512977 240.59110552 23.33994498 239.45231157 29 236 C32.48489669 230.39167493 31.52086518 224.51707438 30.23046875 218.28125 C27.1413124 205.72753758 23.13419005 193.37832654 19.30322266 181.03491211 C19.08576889 180.32914536 18.86831512 179.6233786 18.64427185 178.89622498 C18.04529743 176.95270435 17.44208549 175.01049116 16.83862305 173.06835938 C16 170 16 170 16 167 C-12.49038332 166.87105731 -40.63782979 167.01298207 -69 170 C-69.10993286 170.55007721 -69.21986572 171.10015442 -69.33312988 171.66690063 C-70.48348876 177.1554662 -72.03559366 182.32734218 -73.96875 187.5859375 C-74.54573029 189.19265183 -75.12254819 190.79942448 -75.69921875 192.40625 C-76.5980865 194.89074985 -77.49970846 197.37420044 -78.40478516 199.85644531 C-85.48027916 216.69133134 -85.48027916 216.69133134 -84.1796875 234.12109375 C-82.03751402 237.53296608 -79.72357384 238.48532589 -76 240 C-71.60640662 240.90592335 -67.33048953 241.18242125 -62.8515625 241.31640625 C-61.86547501 241.3475779 -61.86547501 241.3475779 -60.85946655 241.37937927 C-58.78140638 241.44420753 -56.70323144 241.50344564 -54.625 241.5625 C-53.20701989 241.60574888 -51.78905093 241.64936509 -50.37109375 241.69335938 C-46.9141812 241.79981918 -43.45714294 241.90126984 -40 242 C-38.98711784 246.42679317 -39.22192571 249.80859126 -39.9375 254.3125 C-40.13214844 255.56675781 -40.32679688 256.82101562 -40.52734375 258.11328125 C-40.68332031 259.06589844 -40.83929688 260.01851562 -41 261 C-44.289528 262.09650933 -46.16344919 261.96342758 -49.59423828 261.66455078 C-50.75293427 261.57156708 -51.91163025 261.47858337 -53.10543823 261.38278198 C-54.37259674 261.27966705 -55.63975525 261.17655212 -56.9453125 261.0703125 C-73.83013308 259.79282109 -90.65842007 259.76148402 -107.58215332 259.8626709 C-111.48573503 259.88366125 -115.3893461 259.89237448 -119.29296875 259.90234375 C-126.86206348 259.92337194 -134.43098557 259.95833805 -142 260 C-141.01 253.73 -140.02 247.46 -139 241 C-136.03 240.01 -133.06 239.02 -130 238 C-127.50534565 236.70788326 -127.50534565 236.70788326 -125.5625 235.3125 C-122.18584071 233 -122.18584071 233 -120 233 C-119.59213257 232.14994385 -119.59213257 232.14994385 -119.17602539 231.28271484 C-117.96073294 228.92378098 -116.59724103 226.72172592 -115.18359375 224.4765625 C-111.87443624 218.98366142 -109.42369738 213.3265862 -107.0625 207.375 C-106.59851807 206.2209668 -106.13453613 205.06693359 -105.65649414 203.87792969 C-100.92131978 192.03484847 -96.48077497 180.07806518 -92.02807617 168.12670898 C-87.21257489 155.20350903 -82.31745338 142.31266133 -77.375 129.4375 C-76.62239305 127.47648219 -75.86978891 125.5154633 -75.1171875 123.55444336 C-74.7384549 122.56760056 -74.35972229 121.58075775 -73.96951294 120.56401062 C-73.58640961 119.56577774 -73.20330627 118.56754486 -72.80859375 117.5390625 C-72.42138153 116.5303157 -72.03416931 115.52156891 -71.63522339 114.48225403 C-68.22955137 105.60652637 -64.83645436 96.72602233 -61.45509338 87.84100342 C-59.23523268 82.01043483 -57.00376985 76.18489752 -54.74536133 70.36914062 C-50.86594286 60.35053522 -47.04744328 50.34771473 -43.7096405 40.13343811 C-42.35948425 36.01660731 -40.94799171 31.92205608 -39.53128052 27.82772827 C-38.89583668 25.93196581 -38.29176976 24.02533403 -37.72286987 22.10855103 C-33.53648594 8.02816357 -33.53648594 8.02816357 -27.60125732 4.62432861 C-18.74230282 1.02188737 -9.51413836 -0.32585065 0 0 Z M-24 44 C-24.35489502 45.02504639 -24.70979004 46.05009277 -25.07543945 47.10620117 C-33.80714147 72.30745497 -42.70359166 97.44596412 -51.73950195 122.53979492 C-52.13391983 123.63606705 -52.52833771 124.73233917 -52.93470764 125.86183167 C-53.67094916 127.90763693 -54.40812896 129.95310489 -55.14646912 131.99815369 C-57.17734944 137.64039074 -59.13426012 143.30095881 -61 149 C-53.56592553 149.02557714 -46.13186262 149.04296122 -38.69775391 149.05493164 C-36.17431209 149.0599276 -33.65087312 149.06672663 -31.12744141 149.07543945 C-10.60126527 150.6581266 -10.60126527 150.6581266 9 147 C8.35066167 141.23381862 6.92332734 135.93274512 5.22436523 130.39282227 C4.79986588 128.98677483 4.79986588 128.98677483 4.36679077 127.55232239 C3.43556271 124.47219498 2.4971305 121.39431372 1.55859375 118.31640625 C0.90938962 116.17420235 0.26063808 114.03186124 -0.38768005 111.88938904 C-2.09125817 106.26401302 -3.80096393 100.64051767 -5.51196289 95.01739502 C-7.2584328 89.27379002 -8.99908667 83.52842329 -10.74023438 77.78320312 C-14.15447411 66.52040596 -17.57519148 55.25958752 -21 44 C-21.99 44 -22.98 44 -24 44 Z " fill="#ED1602" transform="translate(314,877)"/>
<path d="M0 0 C1.21478027 0.0009668 2.42956055 0.00193359 3.68115234 0.00292969 C4.14448975 1.73119995 4.14448975 1.73119995 4.6171875 3.49438477 C20.07217866 60.99803056 36.84287947 118.19362764 54.68115234 175.00292969 C54.98966125 175.98773315 55.29817017 176.97253662 55.61602783 177.98718262 C57.50452613 184.01056041 59.4091493 190.02847378 61.33569336 196.03979492 C61.92929778 197.89530754 62.51960734 199.75187831 63.10620117 201.60961914 C68.52418267 220.89506847 68.52418267 220.89506847 81.68115234 235.00292969 C89.0662263 238.18761058 96.75594706 239.81726906 104.68115234 241.00292969 C106.24569394 245.02307629 105.14339209 248.7021865 104.24365234 252.75292969 C104.09605469 253.4503125 103.94845703 254.14769531 103.79638672 254.86621094 C103.43247202 256.58013179 103.05786166 258.2917755 102.68115234 260.00292969 C101.92171326 259.99626785 101.16227417 259.98960602 100.37982178 259.98274231 C90.73034556 259.90202006 81.08090895 259.84759801 71.43115234 259.81542969 C70.6661932 259.81286163 69.90123405 259.81029358 69.11309433 259.80764771 C45.84788843 259.73858769 22.80542018 260.16182587 -0.31884766 263.00292969 C-1.2206011 258.20737532 -1.15685981 254.46347606 -0.38134766 249.62792969 C-0.089375 247.76007813 -0.089375 247.76007813 0.20849609 245.85449219 C0.36447266 244.91347656 0.52044922 243.97246094 0.68115234 243.00292969 C1.29522949 242.93299805 1.90930664 242.86306641 2.54199219 242.79101562 C5.38192187 242.45929051 8.21882902 242.10622925 11.05615234 241.75292969 C12.02166016 241.64335938 12.98716797 241.53378906 13.98193359 241.42089844 C20.46628211 240.5940352 27.02109732 239.45524126 32.68115234 236.00292969 C36.16604904 230.39460462 35.20201753 224.52000407 33.91162109 218.28417969 C30.82246474 205.73046727 26.8153424 193.38125623 22.984375 181.0378418 C22.76692123 180.33207504 22.54946747 179.62630829 22.32542419 178.89915466 C21.72644978 176.95563403 21.12323783 175.01342085 20.51977539 173.07128906 C19.68115234 170.00292969 19.68115234 170.00292969 19.68115234 167.00292969 C-8.80923098 166.873987 -36.95667744 167.01591176 -65.31884766 170.00292969 C-65.42878052 170.5530069 -65.53871338 171.10308411 -65.65197754 171.66983032 C-66.80233642 177.15839589 -68.35444132 182.33027187 -70.28759766 187.58886719 C-70.86457795 189.19558152 -71.44139585 190.80235417 -72.01806641 192.40917969 C-72.91693416 194.89367954 -73.81855612 197.37713013 -74.72363281 199.859375 C-81.79912681 216.69426103 -81.79912681 216.69426103 -80.49853516 234.12402344 C-78.35636168 237.53589576 -76.0424215 238.48825558 -72.31884766 240.00292969 C-67.92525428 240.90885304 -63.64933719 241.18535094 -59.17041016 241.31933594 C-58.18432266 241.35050758 -58.18432266 241.35050758 -57.17831421 241.38230896 C-55.10025404 241.44713721 -53.0220791 241.50637533 -50.94384766 241.56542969 C-49.52586754 241.60867857 -48.10789859 241.65229477 -46.68994141 241.69628906 C-43.23302886 241.80274886 -39.7759906 241.90419953 -36.31884766 242.00292969 C-35.3059655 246.42972286 -35.54077337 249.81152095 -36.25634766 254.31542969 C-36.45099609 255.5696875 -36.64564453 256.82394531 -36.84619141 258.11621094 C-37.00216797 259.06882812 -37.15814453 260.02144531 -37.31884766 261.00292969 C-40.60837565 262.09943902 -42.48229685 261.96635727 -45.91308594 261.66748047 C-47.07178192 261.57449677 -48.23047791 261.48151306 -49.42428589 261.38571167 C-50.6914444 261.28259674 -51.95860291 261.17948181 -53.26416016 261.07324219 C-70.14898073 259.79575078 -86.97726773 259.76441371 -103.90100098 259.86560059 C-107.80458268 259.88659094 -111.70819376 259.89530417 -115.61181641 259.90527344 C-123.18091113 259.92630163 -130.74983323 259.96126774 -138.31884766 260.00292969 C-137.32884766 253.73292969 -136.33884766 247.46292969 -135.31884766 241.00292969 C-132.34884766 240.01292969 -129.37884766 239.02292969 -126.31884766 238.00292969 C-123.8241933 236.71081295 -123.8241933 236.71081295 -121.88134766 235.31542969 C-118.50468836 233.00292969 -118.50468836 233.00292969 -116.31884766 233.00292969 C-116.04733887 232.43727295 -115.77583008 231.87161621 -115.49609375 231.28881836 C-114.27293021 228.91377062 -112.90241996 226.69141793 -111.48291016 224.42871094 C-108.33218166 219.19431336 -105.94677872 213.86042033 -103.69384766 208.19042969 C-103.24275635 207.06991211 -102.79166504 205.94939453 -102.3269043 204.79492188 C-95.90318708 188.7274673 -89.90929754 172.48744828 -83.82469177 156.28967285 C-78.68641247 142.61170049 -73.49435813 128.95549857 -68.25634766 115.31542969 C-63.22629024 102.21379743 -58.20543432 89.10897486 -53.23782349 75.98350525 C-51.22041513 70.65478518 -49.19225573 65.3307982 -47.13623047 60.0168457 C-43.43751469 50.43008654 -39.88792275 40.85843178 -36.78369141 31.06152344 C-29.47015471 8.50746708 -29.47015471 8.50746708 -23.70898438 3.92871094 C-16.04017887 0.02563817 -8.39270431 0.00968948 0 0 Z M-20.31884766 44.00292969 C-20.67374268 45.02797607 -21.0286377 46.05302246 -21.39428711 47.10913086 C-30.12598913 72.31038466 -39.02243931 97.4488938 -48.05834961 122.54272461 C-48.45276749 123.63899673 -48.84718536 124.73526886 -49.2535553 125.86476135 C-49.98979682 127.91056662 -50.72697662 129.95603458 -51.46531677 132.00108337 C-53.4961971 137.64332043 -55.45310778 143.30388849 -57.31884766 149.00292969 C-49.88477319 149.02850683 -42.45071028 149.04589091 -35.01660156 149.05786133 C-32.49315975 149.06285729 -29.96972078 149.06965631 -27.44628906 149.07836914 C-6.92011292 150.66105629 -6.92011292 150.66105629 12.68115234 147.00292969 C12.03181402 141.23674831 10.60447969 135.93567481 8.90551758 130.39575195 C8.48101822 128.98970451 8.48101822 128.98970451 8.04794312 127.55525208 C7.11671505 124.47512466 6.17828284 121.39724341 5.23974609 118.31933594 C4.59054197 116.17713204 3.94179043 114.03479093 3.29347229 111.89231873 C1.58989417 106.26694271 -0.11981158 100.64344735 -1.83081055 95.02032471 C-3.57728046 89.27671971 -5.31793432 83.53135297 -7.05908203 77.78613281 C-10.47332177 66.52333565 -13.89403914 55.2625172 -17.31884766 44.00292969 C-18.30884766 44.00292969 -19.29884766 44.00292969 -20.31884766 44.00292969 Z " fill="#ED1602" transform="translate(1193.31884765625,876.9970703125)"/>
<path d="M0 0 C0.76280273 0.00432037 1.52560547 0.00864075 2.31152344 0.01309204 C22.15789625 0.14449236 40.86984116 3.08161372 59.75 9.375 C60.7146423 13.87440361 60.65036926 17.3844212 59.859375 21.90625 C59.64571289 23.17831299 59.43205078 24.45037598 59.21191406 25.76098633 C59.09561646 26.43175201 58.97931885 27.1025177 58.85949707 27.79360962 C56.54788382 41.17722241 54.86695495 54.54171553 53.65136719 68.06640625 C53.54469727 69.2471875 53.43802734 70.42796875 53.328125 71.64453125 C53.23950195 72.68198486 53.15087891 73.71943848 53.05957031 74.78833008 C52.75 77.375 52.75 77.375 51.75 80.375 C49.68939936 80.74005516 47.62640368 81.09160715 45.5625 81.4375 C44.41394531 81.63472656 43.26539063 81.83195313 42.08203125 82.03515625 C38.96351634 82.35322284 36.75194217 82.18343264 33.75 81.375 C32.59444694 77.90834081 32.70052405 75.34064266 32.79296875 71.6875 C32.81539127 70.33465064 32.83684285 68.98178491 32.85742188 67.62890625 C32.89419325 65.5136999 32.93680893 63.39934972 32.99682617 61.28466797 C33.27550312 50.9675363 32.26677591 42.59698815 27.125 33.5 C15.26556263 22.88892446 -2.90863323 22.45141049 -18.03271484 23.2109375 C-31.46470566 24.20480425 -45.17613697 29.01690114 -54.25 39.375 C-59.84852695 47.56517241 -62.29379024 55.45238642 -61.25 65.375 C-57.45748015 81.88495169 -44.62551775 90.79865425 -31.08251953 99.3828125 C-22.65950332 104.59945603 -13.96307437 109.21621179 -5.15551758 113.74462891 C54.96711035 144.72310159 54.96711035 144.72310159 63.65234375 171.1171875 C68.26098958 187.47044689 65.38087266 204.33065845 57.75 219.375 C45.97496778 240.38467849 25.60199496 253.3252766 2.95214844 259.77734375 C-27.63099479 268.07751389 -66.8641754 266.6626824 -95.25 251.375 C-97.54115039 249.15881568 -98.20733454 248.101466 -98.39453125 244.9140625 C-98.28496094 243.95242188 -98.17539062 242.99078125 -98.0625 242 C-97.94390625 240.82824219 -97.8253125 239.65648437 -97.703125 238.44921875 C-97.59387695 237.46961182 -97.59387695 237.46961182 -97.48242188 236.47021484 C-97.05179523 232.58824231 -96.67931485 228.70095555 -96.3125 224.8125 C-96.22798584 223.92369141 -96.14347168 223.03488281 -96.05639648 222.11914062 C-94.68022004 206.90595007 -94.03368772 191.6279317 -93.25 176.375 C-86.8721448 175.20206111 -80.74678438 174.07969162 -74.25 174.375 C-74.23541748 174.99729492 -74.22083496 175.61958984 -74.20581055 176.26074219 C-73.91844154 187.32901833 -73.51414711 198.34249986 -71.9375 209.3125 C-71.83203857 210.09657227 -71.72657715 210.88064453 -71.61791992 211.68847656 C-70.36732863 219.68060348 -67.1656284 228.61731313 -61.25 234.375 C-45.66158527 244.36961284 -23.46374871 244.60140867 -5.6875 241.3125 C5.7480643 238.36718537 17.65974321 232.78212254 24.4921875 222.83984375 C30.44519501 212.71403433 31.93877572 202.9442431 29.75 191.375 C21.8075328 168.56423421 -4.7297098 158.21605822 -24.36425781 147.69775391 C-83.13477401 116.17383074 -83.13477401 116.17383074 -91.5390625 91.84765625 C-96.35866196 75.08498341 -94.50819098 57.48792744 -86.0625 42.125 C-82.4014175 36.25947846 -78.12212301 31.26325586 -73.25 26.375 C-72.14398437 25.23417969 -72.14398437 25.23417969 -71.015625 24.0703125 C-51.97337984 5.6031687 -25.73832456 -0.27821594 0 0 Z " fill="#ED1602" transform="translate(675.25,876.625)"/>
<path d="M0 0 C0.38404576 7.03737915 -1.06912398 13.72099104 -2.3125 20.625 C-4.80987069 34.82255677 -6.42164804 48.99956189 -7.69042969 63.35986328 C-7.95998274 65.65871711 -8.37291737 67.77616698 -9 70 C-11.58296901 70.33638666 -14.16631263 70.6692165 -16.75 71 C-17.47960937 71.09539062 -18.20921875 71.19078125 -18.9609375 71.2890625 C-22.34856804 71.72021548 -25.57854859 72 -29 72 C-28.98428955 70.89712646 -28.98428955 70.89712646 -28.96826172 69.77197266 C-28.92628202 66.38968424 -28.9005417 63.00745093 -28.875 59.625 C-28.84986328 57.89056641 -28.84986328 57.89056641 -28.82421875 56.12109375 C-28.74491047 44.17385765 -28.74491047 44.17385765 -32.625 33.0625 C-37.92659723 28.45848135 -44.7807635 27.43148499 -51.5625 26.8125 C-52.39313965 26.73354492 -53.2237793 26.65458984 -54.07958984 26.57324219 C-62.41808007 25.8839628 -70.76343993 25.78408329 -79.125 25.75 C-80.44056885 25.74073486 -81.7561377 25.73146973 -83.11157227 25.72192383 C-95.37276875 25.22275498 -95.37276875 25.22275498 -106.0625 29.9375 C-109.16106559 40.05948093 -108.37339291 51.82650635 -108.75390625 62.35546875 C-108.81948219 64.11095622 -108.88531806 65.866434 -108.95140076 67.62190247 C-109.12330237 72.20674491 -109.29170927 76.79170906 -109.45935059 81.37670898 C-109.63156785 86.06957845 -109.80714258 90.76232221 -109.98242188 95.45507812 C-110.32487224 104.63659983 -110.66362511 113.81825384 -111 123 C-104.19465687 123.07770789 -97.38943259 123.12927213 -90.58374023 123.16479492 C-88.28096241 123.17964331 -85.97821157 123.19992715 -83.67553711 123.22631836 C-68.97682021 123.39024457 -54.76623251 122.67995501 -40.20092773 120.6496582 C-36.07893034 120.08586846 -32.1557871 119.86180022 -28 120 C-26.89693675 123.3341938 -27.12682832 125.52666318 -27.9609375 128.9140625 C-28.18523437 129.83960938 -28.40953125 130.76515625 -28.640625 131.71875 C-28.88296875 132.6778125 -29.1253125 133.636875 -29.375 134.625 C-29.60960937 135.59179688 -29.84421875 136.55859375 -30.0859375 137.5546875 C-31.83490728 144.66981456 -31.83490728 144.66981456 -33 147 C-33.88969482 146.96970703 -34.77938965 146.93941406 -35.69604492 146.90820312 C-61.32314101 146.04851085 -86.42246408 145.62604677 -112 148 C-112.77696109 179.93450271 -112.77696109 179.93450271 -113.1875 211.875 C-113.20039062 212.89118408 -113.21328125 213.90736816 -113.2265625 214.9543457 C-113.27854921 226.25170172 -113.27854921 226.25170172 -108.5 236.0625 C-104.28765984 239.32706362 -101.08930945 239.13192357 -95.9296875 239.09765625 C-95.13345978 239.0962413 -94.33723206 239.09482635 -93.51687622 239.09336853 C-90.9695462 239.08776345 -88.42230353 239.07521014 -85.875 239.0625 C-84.14974085 239.05748565 -82.42448033 239.05292263 -80.69921875 239.04882812 C-76.46611209 239.03779237 -72.23307086 239.02052436 -68 239 C-66.68290735 242.95127795 -67.57495272 246.09384441 -68.375 250.0625 C-68.51421875 250.79533203 -68.6534375 251.52816406 -68.796875 252.28320312 C-69.85226739 257.70453477 -69.85226739 257.70453477 -71 260 C-71.85601807 259.99111755 -72.71203613 259.98223511 -73.59399414 259.9730835 C-81.82501018 259.89155729 -90.05588298 259.83135628 -98.28721619 259.79275131 C-102.51490052 259.77223448 -106.74224048 259.74461315 -110.96972656 259.69824219 C-133.32563 259.45940299 -154.89224801 260.53671601 -177 264 C-176.76816257 261.9443748 -176.53629089 259.88875346 -176.3041687 257.8331604 C-176.12576731 256.24922009 -175.94921599 254.66507115 -175.77368164 253.08081055 C-175.69496826 252.39801025 -175.61625488 251.71520996 -175.53515625 251.01171875 C-175.41732788 249.96697388 -175.41732788 249.96697388 -175.29711914 248.90112305 C-175 247 -175 247 -174 244 C-171.46841735 243.07562942 -169.03106942 242.32166767 -166.4375 241.625 C-158.77320329 239.38125428 -152.55137273 237.42421077 -147.625 230.8125 C-142.87588858 220.98604528 -143.70833405 209.71580417 -143.7253418 199.08520508 C-143.72098867 197.28230072 -143.71580353 195.47939821 -143.70985413 193.67649841 C-143.69652236 188.80485408 -143.69587859 183.93328759 -143.69841743 179.06162858 C-143.69949038 174.98832731 -143.69459585 170.91504158 -143.689812 166.84174365 C-143.67873853 157.23343239 -143.67826826 147.62516024 -143.68432617 138.0168457 C-143.69037469 128.11242384 -143.67802773 118.20814373 -143.6567561 108.30374604 C-143.63913929 99.78714812 -143.63313859 91.27059533 -143.63639385 82.75397986 C-143.63820557 77.67278315 -143.63558084 72.59168774 -143.62167931 67.51050758 C-143.60910311 62.73582529 -143.6110431 57.96136446 -143.62409019 53.18668556 C-143.62645538 51.43676682 -143.62372335 49.68683248 -143.61546707 47.93693161 C-143.6049936 45.5443121 -143.6131044 43.15243506 -143.6257782 40.75984192 C-143.61471677 39.72675682 -143.61471677 39.72675682 -143.60343188 38.67280132 C-143.65875554 33.69270259 -144.70213519 30.33583914 -147 26 C-153.64045529 21.57302981 -163.26867661 22.867715 -171 23 C-172.31052767 18.69577494 -171.45785552 15.0629466 -170.5625 10.75 C-170.34110352 9.63238281 -170.34110352 9.63238281 -170.11523438 8.4921875 C-169.7511306 6.65992335 -169.37658591 4.82973947 -169 3 C-168.4508128 3.00184359 -167.9016256 3.00368717 -167.33579636 3.00558662 C-153.77892164 3.05035954 -140.2220604 3.08300909 -126.6651268 3.10362434 C-120.10826559 3.11393795 -113.5514588 3.12786121 -106.99462891 3.15087891 C-59.1278229 3.31547167 -59.1278229 3.31547167 -11.38494873 0.18777466 C-7.58254854 -0.1116005 -3.81217716 -0.06249471 0 0 Z " fill="#ED1602" transform="translate(181,877)"/>
<path d="M0 0 C0.02757191 1.66656881 0.04664803 3.33327851 0.0625 5 C0.07410156 5.928125 0.08570313 6.85625 0.09765625 7.8125 C-0.01837872 11.59988147 -0.48629141 15.24628683 -1 19 C-2.08539062 19.23074219 -3.17078125 19.46148438 -4.2890625 19.69921875 C-5.73457993 20.02774544 -7.17988141 20.35722333 -8.625 20.6875 C-9.33785156 20.83638672 -10.05070312 20.98527344 -10.78515625 21.13867188 C-16.07205969 22.37551626 -19.2273659 24.04043358 -23 28 C-24.84161773 32.46033195 -25.438883 36.79847995 -25.78125 41.5703125 C-25.83963043 42.3072081 -25.89801086 43.0441037 -25.9581604 43.80332947 C-26.14786163 46.24329233 -26.32480244 48.68395534 -26.5 51.125 C-26.59471588 52.40018997 -26.59471588 52.40018997 -26.69134521 53.70114136 C-28.18902824 73.93252661 -29.14432044 94.18605375 -29.90429688 114.45721436 C-29.99364372 116.83111676 -30.0863426 119.20486537 -30.1796875 121.57861328 C-31.02630133 143.56226514 -31.12696632 165.55654759 -31.1807785 187.55388641 C-31.18745832 189.79849589 -31.19756187 192.04306656 -31.20855713 194.28765869 C-31.22531083 197.85830524 -31.23127464 201.42882219 -31.22932243 204.999506 C-31.2304363 206.96234676 -31.24111984 208.9251748 -31.25209045 210.88798523 C-31.44048609 222.6097663 -31.44048609 222.6097663 -26.6875 232.9375 C-14.48923632 242.29895817 9.49374509 238.99274667 23.9375 237.25 C33.21494908 235.84373403 42.93753267 233.70255511 49 226 C55.26380935 216.04840679 58.21120114 205.31231087 61 194 C61.32097656 192.741875 61.64195312 191.48375 61.97265625 190.1875 C62.66363734 187.46214202 63.33458294 184.73171212 64 182 C72.91 181.01 72.91 181.01 82 180 C84.24973294 184.49946589 84.24973294 184.49946589 83.5402832 188.47949219 C83.3896492 189.36272156 83.2390152 190.24595093 83.08381653 191.15594482 C82.90791489 192.10995178 82.73201324 193.06395874 82.55078125 194.046875 C82.37749802 195.0497052 82.20421478 196.0525354 82.02568054 197.08575439 C81.46685557 200.30945093 80.89078568 203.52974246 80.3125 206.75 C79.57172846 210.93097029 78.8395352 215.11335941 78.11328125 219.296875 C77.93177521 220.33493286 77.75026917 221.37299072 77.56326294 222.44250488 C76.09222337 231.03303757 74.96870335 239.64763384 74.02302551 248.31121826 C73.91641098 249.24782288 73.80979645 250.18442749 73.69995117 251.14941406 C73.61218918 251.96798889 73.52442719 252.78656372 73.43400574 253.62994385 C72.95023695 256.27175037 72.06963843 258.54267686 71 261 C57.7334279 261.14080088 44.53907446 260.74041575 31.28717041 260.14413452 C-29.97383205 257.27939216 -29.97383205 257.27939216 -91 262 C-90.85834107 259.60385425 -90.71181159 257.20817103 -90.5625 254.8125 C-90.52318359 254.13896484 -90.48386719 253.46542969 -90.44335938 252.77148438 C-90.21072435 249.10300898 -89.82792989 245.58305794 -89 242 C-88.2265625 241.84144531 -87.453125 241.68289063 -86.65625 241.51953125 C-78.51574558 239.69597766 -72.1715343 237.67230288 -66.625 231.25 C-62.01522112 222.03044223 -62.68130459 211.9019833 -62.64941406 201.8605957 C-62.63682537 200.12830513 -62.62341097 198.3960204 -62.60923767 196.66374207 C-62.57350364 191.97755867 -62.55004852 187.29138939 -62.5294199 182.60511804 C-62.51094329 178.6816244 -62.48621726 174.75818041 -62.46144938 170.83472222 C-62.40297928 161.56994338 -62.35424283 152.30514935 -62.31201172 143.0402832 C-62.26844544 133.51145004 -62.21037052 123.98278675 -62.14476418 114.45408183 C-62.08868398 106.24911424 -62.04078027 98.04412743 -61.9995153 89.83907193 C-61.97490115 84.94934322 -61.94750362 80.05967481 -61.91260529 75.17000771 C-61.88017981 70.5661238 -61.85808892 65.96229822 -61.84359932 61.35832405 C-61.83668394 59.67905591 -61.82632171 57.99979743 -61.81204796 56.32057571 C-61.38545597 41.46233822 -61.38545597 41.46233822 -64 27 C-67.12907814 23.98994954 -69.28046593 22.51154386 -73.625 22.25 C-74.4809375 22.19457031 -75.336875 22.13914062 -76.21875 22.08203125 C-80.81468824 21.94647689 -85.40284107 21.92134139 -90 22 C-90.18983978 17.06416571 -89.84012884 12.57711852 -88.9921875 7.703125 C-88.71544189 6.09679199 -88.71544189 6.09679199 -88.43310547 4.45800781 C-88.29018066 3.64686523 -88.14725586 2.83572266 -88 2 C-86.87938423 2.00666183 -86.87938423 2.00666183 -85.73612976 2.01345825 C-78.60473095 2.05397084 -71.47337373 2.08420157 -64.34189129 2.10362434 C-60.6778277 2.11394625 -57.01386123 2.12788564 -53.34985352 2.15087891 C-31.42311531 2.31403545 -31.42311531 2.31403545 -9.59301758 0.43310547 C-6.34879181 0.04204367 -3.26256762 -0.08058856 0 0 Z " fill="#ED1602" transform="translate(1412,878)"/>
<path d="M0 0 C12.54 0 25.08 0 38 0 C44.70502025 20.64978012 51.24717465 41.33664723 57.6081543 62.09436035 C58.47162242 64.91023862 59.33724002 67.72545414 60.20288849 70.54066277 C64.8569474 85.67738411 69.47413355 100.82437337 74 116 C73.8934182 114.23381317 73.8934182 114.23381317 73.78468323 112.4319458 C73.03515066 99.29355946 72.86762564 86.20393266 72.90234375 73.046875 C72.90421507 70.92311639 72.90563559 68.79935734 72.90663147 66.67559814 C72.91040053 61.15863801 72.92018096 55.64170534 72.93133545 50.12475586 C72.94167213 44.46598685 72.94615501 38.80721328 72.95117188 33.1484375 C72.96180987 22.09894449 72.97935923 11.04947885 73 0 C81.91 0 90.82 0 100 0 C100 52.14 100 104.28 100 158 C87.13 158 74.26 158 61 158 C43 100 43 100 25 42 C25.05993134 42.90187546 25.11986267 43.80375092 25.18161011 44.73295593 C26.76524779 69.233028 27.2643611 93.61505683 27.1373291 118.1619873 C27.11629994 122.68284093 27.10761781 127.20372023 27.09765625 131.72460938 C27.07665778 140.48314628 27.04170849 149.24153725 27 158 C18.09 158 9.18 158 0 158 C0 105.86 0 53.72 0 0 Z M75 120 C76 122 76 122 76 122 Z " fill="#ED1602" transform="translate(909,1219)"/>
<path d="M0 0 C0.10349817 6.41688675 -0.25492456 12.62694402 -1 19 C-2.22976563 19.24234375 -3.45953125 19.4846875 -4.7265625 19.734375 C-6.35951768 20.0722278 -7.99232246 20.41080808 -9.625 20.75 C-10.43324219 20.90726563 -11.24148438 21.06453125 -12.07421875 21.2265625 C-17.12684879 22.29459812 -21.13042482 23.39142256 -25 27 C-28.97912584 34.20449899 -29.69603211 41.3404519 -29.9765625 49.4296875 C-30.03211304 50.62800201 -30.08766357 51.82631653 -30.14489746 53.0609436 C-30.29187441 56.31850674 -30.42289257 59.57620755 -30.54593658 62.83474731 C-30.65275764 65.59129332 -30.77244518 68.34722082 -30.89222527 71.10322952 C-31.26595072 79.70481742 -31.59934614 88.30770438 -31.92138672 96.91136169 C-31.99792606 98.94489848 -32.07581219 100.97837826 -32.15429688 103.01184082 C-33.25791823 131.62627003 -34.10022683 160.24530958 -34.6875 188.875 C-34.71241516 190.00607178 -34.73733032 191.13714355 -34.76300049 192.30249023 C-36.33070727 214.27544447 -36.33070727 214.27544447 -31 235 C-26.65341785 237.72478781 -23.37444709 238.36295111 -18.2890625 238.29296875 C-16.42314453 238.2784668 -16.42314453 238.2784668 -14.51953125 238.26367188 C-13.23433594 238.23853516 -11.94914063 238.21339844 -10.625 238.1875 C-9.31660156 238.17396484 -8.00820313 238.16042969 -6.66015625 238.14648438 C-3.43968156 238.1112237 -0.22005394 238.06193633 3 238 C4.07609273 242.57857236 3.62255541 246.20849776 2.625 250.75 C2.48578125 251.43449219 2.3465625 252.11898438 2.203125 252.82421875 C1.14773261 257.85226739 1.14773261 257.85226739 0 259 C-1.91738106 259.07309145 -3.83749413 259.07515918 -5.75610352 259.05004883 C-6.99413223 259.03706253 -8.23216095 259.02407623 -9.50770569 259.01069641 C-10.17696642 259.00171137 -10.84622715 258.99272633 -11.53576851 258.98346901 C-13.65754579 258.95666951 -15.77921516 258.93888337 -17.90110779 258.92399597 C-23.93939517 258.88153272 -29.97749614 258.8362701 -36.01538086 258.75317383 C-57.35709807 258.46852896 -77.88874617 259.76272498 -99 263 C-98.84649515 260.92306992 -98.69120197 258.84627197 -98.53515625 256.76953125 C-98.44886963 255.61300049 -98.36258301 254.45646973 -98.27368164 253.26489258 C-97.98387942 249.80768906 -97.55715523 246.42252501 -97 243 C-95.65808594 242.65388672 -95.65808594 242.65388672 -94.2890625 242.30078125 C-79.80341083 238.69301289 -79.80341083 238.69301289 -68.9375 229.13671875 C-65.83286567 222.06073967 -65.69673141 215.0889783 -65.68115234 207.48999023 C-65.66608391 205.79196259 -65.66608391 205.79196259 -65.65071106 204.05963135 C-65.61981362 200.30929012 -65.60277498 196.5590224 -65.5859375 192.80859375 C-65.5671653 190.14924713 -65.54766276 187.48991524 -65.5272522 184.83058167 C-65.48572798 179.2244027 -65.45130466 173.61821786 -65.421875 168.01196289 C-65.38147942 160.31906991 -65.32845488 152.62630674 -65.27263594 144.93351245 C-65.17918874 131.96892698 -65.10646126 119.0043345 -65.05233383 106.03952599 C-65.04673246 104.69796116 -65.04112867 103.35639635 -65.03552246 102.01483154 C-65.03276723 101.35296691 -65.030012 100.69110228 -65.02717328 100.00918114 C-65.00712958 95.32536277 -64.98122706 90.64159882 -64.95275879 85.95782471 C-64.91434186 79.5571914 -64.88606652 73.15659138 -64.86549759 66.75587654 C-64.85633632 64.39196245 -64.84377881 62.02805864 -64.82752609 59.66418266 C-64.44530279 41.59770083 -64.44530279 41.59770083 -68 24 C-77.42332955 22.00111191 -86.42706002 21.78132878 -96 22 C-97.01573289 18.95280133 -97.0097124 18.01166996 -96.44140625 14.98828125 C-96.30283203 14.23095703 -96.16425781 13.47363281 -96.02148438 12.69335938 C-95.87001953 11.90767578 -95.71855469 11.12199219 -95.5625 10.3125 C-95.41490234 9.51521484 -95.26730469 8.71792969 -95.11523438 7.89648438 C-94.75015036 5.92974148 -94.37594711 3.96469533 -94 2 C-92.80754669 2.00666183 -92.80754669 2.00666183 -91.59100342 2.01345825 C-84.00371039 2.05396511 -76.41647168 2.08419877 -68.82909775 2.10362434 C-64.93077638 2.11394772 -61.03254623 2.12789004 -57.13427734 2.15087891 C-33.93889296 2.32483905 -33.93889296 2.32483905 -10.83691406 0.43310547 C-7.14994821 0.01692594 -3.70017469 -0.07691034 0 0 Z " fill="#ED1602" transform="translate(532,878)"/>
<path d="M0 0 C69.48267898 0 69.48267898 0 85.75390625 15.69140625 C94.27159048 24.89221302 96.27649096 36.67769935 96.02978516 48.9074707 C95.43723449 61.94201778 91.52853977 73.74273538 82 83 C74.45783133 89 74.45783133 89 71 89 C76.8921845 101.89248035 82.86711362 114.73798666 89.09375 127.47265625 C89.52560104 128.35593094 89.95745209 129.23920563 90.40238953 130.14924622 C92.5617576 134.56075677 94.72828741 138.96864026 96.90161133 143.37329102 C97.70136588 145.0014495 98.50109061 146.62962263 99.30078125 148.2578125 C99.67517334 149.01179825 100.04956543 149.765784 100.43530273 150.5426178 C103 155.77411088 103 155.77411088 103 158 C92.44 158 81.88 158 71 158 C62.95872043 141.91744087 62.95872043 141.91744087 59.73828125 134.41796875 C59.38033981 133.59347733 59.02239838 132.7689859 58.65361023 131.91950989 C57.53625598 129.34373583 56.42419251 126.7657219 55.3125 124.1875 C54.18884856 121.59197906 53.06410444 118.9969336 51.93925476 116.40193176 C51.2470597 114.80394917 50.55575367 113.20558103 49.86555481 111.60673523 C47.61165985 106.38876015 45.31536481 101.19100741 43 96 C38.71 95.67 34.42 95.34 30 95 C30 115.79 30 136.58 30 158 C20.1 158 10.2 158 0 158 C0 105.86 0 53.72 0 0 Z M30 22 C30 38.83 30 55.66 30 73 C45.82256389 74.03283617 45.82256389 74.03283617 58.5703125 67.609375 C63.97276375 61.7438565 64.3631278 55.17571724 64.375 47.625 C64.41173828 46.40683594 64.41173828 46.40683594 64.44921875 45.1640625 C64.48028564 38.70215008 63.0255899 33.3581902 58.62304688 28.47167969 C50.58663855 21.24729437 40.20283546 22 30 22 Z " fill="#ED1602" transform="translate(240,1219)"/>
<path d="M0 0 C68.22421525 0 68.22421525 0 84 13.7421875 C94.13461533 24.26995601 95.39328361 37.41694962 95.21875 51.24609375 C95.04298472 56.83433098 94.05692816 61.79507744 92 67 C91.74476562 67.68835937 91.48953125 68.37671875 91.2265625 69.0859375 C87.53851515 77.6462676 80.49012118 85.18810886 72 89 C71.34 89 70.68 89 70 89 C70.28068832 89.5694635 70.56137665 90.138927 70.85057068 90.72564697 C73.82432821 96.7605582 76.79321146 102.79785058 79.75952148 108.83642578 C80.86086214 111.07692412 81.96336326 113.31685248 83.06713867 115.55615234 C89.98504032 129.5932952 96.66430849 143.68973147 103 158 C92.11 158 81.22 158 70 158 C63.07924762 142.76036344 56.16760429 127.52094903 49.48934937 112.17340088 C48.9134501 110.85023353 48.33632293 109.52759993 47.75796509 108.20550537 C46.951964 106.36134506 46.15161937 104.51471563 45.3515625 102.66796875 C44.89604004 101.61891357 44.44051758 100.5698584 43.97119141 99.48901367 C43 97 43 97 43 95 C38.71 95 34.42 95 30 95 C30 115.79 30 136.58 30 158 C20.1 158 10.2 158 0 158 C0 105.86 0 53.72 0 0 Z M30 22 C30 38.83 30 55.66 30 73 C44.80671787 74.11400734 44.80671787 74.11400734 56.953125 68.30078125 C63.05406301 61.98903847 64.05565626 56.05810071 64.3125 47.5625 C64.19100934 40.57273754 62.86030749 35.21976296 59.375 29.1875 C51.00901228 21.48198499 40.78678749 22 30 22 Z " fill="#ED1602" transform="translate(1389,1219)"/>
<path d="M0 0 C11.88 0 23.76 0 36 0 C40.91579501 16.75232233 45.25994476 33.62006338 49.47395277 50.5586977 C50.40838085 54.31169522 51.34673907 58.06371021 52.28457642 61.81585693 C53.8517566 68.08823674 55.41631039 74.36126658 56.97900391 80.63476562 C58.98648217 88.6938117 60.99843298 96.75173445 63.01172447 104.80932999 C64.74841916 111.76007696 66.48311075 118.71132358 68.21746874 125.66265392 C68.77369325 127.89164989 69.33019362 130.12057686 69.88673019 132.34949493 C70.75635261 135.83286002 71.62472774 139.31653375 72.49211121 142.800457 C72.96362156 144.6932041 73.43628076 146.58566488 73.90896606 148.4781189 C74.18637634 149.59347015 74.46378662 150.70882141 74.74960327 151.85797119 C74.99253805 152.83268497 75.23547283 153.80739876 75.48576927 154.81164932 C76 157 76 157 76 158 C65.77 158 55.54 158 45 158 C44.21625 154.555625 43.4325 151.11125 42.625 147.5625 C42.26075928 145.96257202 42.26075928 145.96257202 41.88916016 144.33032227 C41.46895792 142.48249235 41.05066019 140.63422879 40.63378906 138.78564453 C40.22826061 137.00325638 39.81433792 135.22274426 39.38964844 133.44482422 C39.20692383 132.66768066 39.02419922 131.89053711 38.8359375 131.08984375 C38.59302979 130.08038696 38.59302979 130.08038696 38.34521484 129.05053711 C38 127 38 127 38 122 C24.8 122 11.6 122 -2 122 C-3.55584868 130.10611892 -3.55584868 130.10611892 -5.11083984 138.21240234 C-5.30887207 139.24316895 -5.5069043 140.27393555 -5.7109375 141.3359375 C-6.00943604 142.89127197 -6.00943604 142.89127197 -6.31396484 144.47802734 C-7.1925751 148.98864353 -8.09876976 153.49384882 -9 158 C-19.23 158 -29.46 158 -40 158 C-39.11183594 154.44734375 -38.22367187 150.8946875 -37.30859375 147.234375 C-36.99289932 145.97150665 -36.6772049 144.70863831 -36.35194397 143.40750122 C-34.85949845 137.43735484 -33.36685849 131.4672573 -31.87353039 125.49733162 C-30.94421042 121.78210584 -30.01504081 118.06684247 -29.0859375 114.3515625 C-28.89150873 113.57409039 -28.69707996 112.79661827 -28.49675941 111.9955864 C-25.47116562 99.89580407 -22.45216074 87.79438744 -19.43595886 75.69226074 C-17.59569386 68.30868736 -15.75378914 60.92552327 -13.91151905 53.54244995 C-12.6045357 48.30412609 -11.29846772 43.06557722 -9.99435425 37.82653809 C-8.75337905 32.84119174 -7.51022256 27.85639436 -6.26543808 22.87199783 C-5.80212114 21.01504623 -5.33963005 19.15788836 -4.87799454 17.30051804 C-4.24447128 14.75204691 -3.608074 12.20431051 -2.97094727 9.65673828 C-2.78457923 8.90407558 -2.59821119 8.15141289 -2.40619564 7.37594223 C-1.1140779 2.2281558 -1.1140779 2.2281558 0 0 Z M17 26 C15.17002961 34.92646444 13.34426933 43.85377657 11.52388 52.78219986 C10.6784715 56.92798059 9.83161507 61.07345453 8.98144531 65.21826172 C8.16106125 69.21812639 7.34448632 73.21875142 6.5305481 77.21993256 C6.2193255 78.7464239 5.90673071 80.27263614 5.59274292 81.7985611 C5.1532462 83.93562305 4.71863584 86.0736247 4.28515625 88.21191406 C4.03644775 89.4288092 3.78773926 90.64570435 3.53149414 91.8994751 C2.88736248 95.13279076 2.88736248 95.13279076 3 99 C12.9 99 22.8 99 33 99 C30.11662891 83.65302484 27.08869956 68.34302538 23.91867065 53.05288696 C23.51482471 51.10225597 23.11290526 49.15122512 22.71292114 47.19979858 C22.14368371 44.42626499 21.56699967 41.65438127 20.98828125 38.8828125 C20.81758118 38.04527939 20.6468811 37.20774628 20.4710083 36.34483337 C20.30695496 35.56733231 20.14290161 34.78983124 19.97387695 33.98876953 C19.83351517 33.31218292 19.69315338 32.63559631 19.54853821 31.93850708 C18.94187134 29.79457618 18.05127579 27.95975557 17 26 Z " fill="#ED1602" transform="translate(510,1219)"/>
<path d="M0 0 C26.07 0 52.14 0 79 0 C77 19 77 19 76 23 C60.82 23 45.64 23 30 23 C30 37.52 30 52.04 30 67 C43.2 67 56.4 67 70 67 C70 74.59 70 82.18 70 90 C56.8 90 43.6 90 30 90 C30 105.18 30 120.36 30 136 C46.17 136 62.34 136 79 136 C79 143.26 79 150.52 79 158 C52.93 158 26.86 158 0 158 C0 105.86 0 53.72 0 0 Z " fill="#ED1602" transform="translate(1163,1219)"/>
<path d="M0 0 C32.67 0 65.34 0 99 0 C98 12 98 12 96 24 C85.11 24 74.22 24 63 24 C63 68.22 63 112.44 63 158 C53.1 158 43.2 158 33 158 C33 113.78 33 69.56 33 24 C22.11 24 11.22 24 0 24 C0 16.08 0 8.16 0 0 Z " fill="#EC1702" transform="translate(1,1219)"/>
<path d="M0 0 C9.9 0 19.8 0 30 0 C30 52.14 30 104.28 30 158 C20.1 158 10.2 158 0 158 C0 105.86 0 53.72 0 0 Z " fill="#EC1603" transform="translate(725,1219)"/>
</svg>
