<?xml version="1.0" standalone="no"?>
<!DOCTYPE svg PUBLIC "-//W3C//DTD SVG 20010904//EN"
 "http://www.w3.org/TR/2001/REC-SVG-20010904/DTD/svg10.dtd">
<svg version="1.0" xmlns="http://www.w3.org/2000/svg"
 width="1500.000000pt" height="1377.000000pt" viewBox="0 0 1500.000000 1377.000000"
 preserveAspectRatio="xMidYMid meet">

<g transform="translate(0.000000,1377.000000) scale(0.100000,-0.100000)"
fill="#000000" stroke="none">
<path d="M5172 13738 c-77 -128 -2292 -4031 -2292 -4040 0 -6 518 -926 1151
-2045 l1151 -2033 2313 0 2312 0 1156 2033 c637 1119 1157 2039 1157 2045 0 6
-509 908 -1131 2003 -622 1096 -1139 2010 -1150 2031 l-19 38 -2314 0 -2314 0
-20 -32z m4243 -176 c-18 -16 -3499 -1142 -3506 -1135 -15 16 -526 1132 -521
1138 3 3 912 5 2021 5 1108 0 2011 -4 2006 -8z m618 -2026 c186 -1034 335
-1881 333 -1883 -5 -5 -4246 2600 -4246 2607 0 8 3565 1167 3571 1161 3 -3
157 -852 342 -1885z m-4543 1305 l241 -524 -73 -73 c-139 -139 -2393 -2293
-2395 -2290 -3 3 1909 3381 1944 3435 l16 24 12 -24 c7 -13 122 -260 255 -548z
m5417 -1425 c497 -879 902 -1600 901 -1602 -6 -6 -1200 -265 -1204 -261 -3 3
-605 3367 -620 3467 -5 31 -4 33 7 15 7 -11 419 -739 916 -1619z m-2969 -525
c1082 -665 2055 -1263 2162 -1329 107 -65 195 -123 197 -128 1 -5 -856 -496
-1905 -1092 -1049 -595 -2022 -1148 -2162 -1227 -140 -80 -258 -145 -262 -145
-5 0 -8 1154 -8 2565 0 1411 3 2565 6 2565 3 0 890 -544 1972 -1209z m-2190
-2588 l-3 -1247 -1243 1291 c-684 710 -1245 1294 -1245 1297 -1 3 558 544
1243 1202 l1245 1198 3 -1247 c1 -686 1 -1808 0 -2494z m6054 1255 c-17 -29
-461 -813 -987 -1743 -526 -929 -960 -1694 -965 -1699 -5 -4 -4 9 0 30 57 249
751 3199 754 3201 5 5 1187 261 1209 262 16 1 15 -5 -11 -51z m-1822 -1968
c-209 -892 -381 -1625 -384 -1627 -2 -2 -778 188 -1725 424 -1052 261 -1717
431 -1712 436 13 13 4194 2397 4198 2394 1 -2 -168 -734 -377 -1627z m-5410
380 c601 -624 1106 -1149 1122 -1166 l29 -31 -243 -406 c-133 -224 -245 -403
-249 -399 -11 11 -1799 3173 -1799 3180 0 4 11 -5 24 -18 13 -14 515 -536
1116 -1160z m3020 -1722 l1645 -413 -957 -3 c-526 -1 -1388 -1 -1916 0 l-959
3 234 385 c128 212 243 400 253 418 14 23 26 32 38 28 9 -2 757 -191 1662
-418z"/>
<path d="M1720 4989 c-168 -24 -460 -34 -1011 -34 l-587 0 -6 -50 c-3 -27 -9
-66 -12 -87 l-6 -36 111 -4 c102 -3 112 -5 136 -28 15 -16 28 -45 35 -79 12
-67 13 -1683 1 -1823 -11 -117 -36 -177 -93 -218 -35 -26 -119 -59 -189 -74
-24 -5 -26 -11 -37 -93 -5 -49 -9 -89 -8 -90 1 -1 62 8 136 19 144 22 398 28
740 18 l164 -5 18 85 c9 47 17 91 18 98 0 11 -31 12 -157 6 -223 -9 -266 6
-294 106 -13 48 -13 458 -1 700 l7 125 85 13 c59 9 181 12 396 10 l312 -3 27
118 c15 65 24 121 21 124 -4 4 -77 -2 -164 -13 -117 -14 -221 -19 -409 -19
-138 0 -254 3 -258 7 -8 7 22 836 32 900 7 47 33 75 77 84 19 3 151 4 293 2
284 -5 337 -14 385 -65 40 -44 48 -84 48 -245 l0 -149 88 7 c48 3 90 9 93 13
3 3 12 69 18 146 12 133 49 393 69 480 10 45 6 66 -11 64 -7 -1 -37 -5 -67
-10z"/>
<path d="M2977 4966 c-65 -19 -122 -37 -127 -42 -5 -5 -183 -466 -396 -1024
-212 -558 -397 -1039 -410 -1067 -58 -133 -135 -209 -234 -233 l-48 -12 -12
-71 c-6 -40 -14 -80 -16 -90 -5 -16 8 -17 243 -11 223 6 531 -4 689 -22 l51
-6 12 76 c6 42 11 83 11 90 0 10 -39 14 -168 18 -141 5 -177 9 -215 26 -83 37
-105 107 -72 231 13 51 160 470 167 477 2 1 44 8 93 16 59 8 206 13 424 13
l333 0 64 -210 c107 -349 118 -409 88 -466 -22 -44 -85 -68 -224 -87 l-117
-16 -7 -80 c-4 -43 -3 -83 2 -88 4 -4 75 0 157 9 111 12 243 17 505 17 l355 1
12 70 c16 97 17 93 -24 100 -184 30 -257 74 -317 193 -55 110 -444 1392 -632
2085 -28 104 -41 137 -53 136 -9 0 -69 -15 -134 -33z m111 -918 c86 -285 154
-520 151 -523 -23 -22 -709 -35 -709 -13 0 6 79 235 176 507 97 273 181 509
186 524 24 66 38 31 196 -495z"/>
<path d="M6590 4990 c-237 -33 -422 -119 -565 -264 -144 -146 -200 -274 -200
-461 0 -80 5 -124 18 -162 42 -121 162 -259 311 -357 77 -51 148 -91 496 -281
69 -37 152 -86 185 -108 80 -54 174 -151 205 -212 22 -44 25 -63 25 -155 0
-99 -2 -110 -33 -172 -93 -188 -347 -286 -648 -249 -184 23 -256 62 -312 171
-41 80 -59 180 -68 368 l-7 144 -81 -7 c-45 -4 -84 -9 -87 -11 -3 -2 -9 -95
-12 -206 -3 -112 -13 -263 -22 -337 -9 -74 -14 -145 -10 -158 15 -62 314 -147
558 -159 377 -19 710 102 897 327 95 114 147 244 157 394 11 171 -31 277 -161
410 -90 92 -184 157 -386 265 -317 170 -380 206 -465 264 -189 128 -259 227
-259 367 0 67 5 86 32 142 79 160 245 241 487 240 262 -1 383 -57 432 -198 14
-40 18 -83 18 -218 0 -194 -7 -183 105 -170 l65 8 17 170 c10 94 27 233 40
310 12 77 22 156 22 175 1 35 1 35 -79 62 -169 56 -512 91 -675 68z"/>
<path d="M11807 4966 c-65 -19 -122 -37 -127 -42 -4 -5 -183 -466 -395 -1024
-213 -558 -398 -1039 -411 -1067 -58 -133 -135 -209 -234 -233 l-48 -12 -12
-71 c-6 -40 -14 -80 -16 -90 -5 -16 8 -17 243 -11 223 6 531 -4 689 -22 l51
-6 12 76 c6 42 11 83 11 90 0 10 -39 14 -168 18 -141 5 -177 9 -215 26 -83 37
-105 107 -72 231 13 51 160 470 167 477 2 1 44 8 93 16 59 8 206 13 424 13
l333 0 64 -210 c107 -348 118 -409 88 -466 -22 -44 -85 -68 -224 -87 l-117
-16 -7 -80 c-4 -43 -3 -83 2 -88 4 -4 75 0 157 9 111 12 243 17 505 17 l355 1
12 70 c16 97 17 93 -24 100 -184 30 -257 74 -317 193 -56 111 -440 1378 -632
2085 -28 104 -41 137 -53 136 -9 0 -69 -15 -134 -33z m111 -918 c86 -285 154
-520 151 -523 -23 -22 -709 -35 -709 -13 0 6 79 235 176 507 97 273 181 509
186 524 24 66 38 31 196 -495z"/>
<path d="M5165 4967 c-39 -6 -228 -10 -423 -10 -350 0 -352 0 -357 -21 -14
-63 -26 -149 -21 -153 3 -3 55 -5 115 -4 127 2 160 -9 182 -61 12 -27 14 -195
14 -988 l0 -955 -30 -60 c-37 -75 -92 -114 -200 -143 -43 -12 -79 -23 -81 -25
-6 -5 -27 -168 -23 -171 2 -2 60 6 129 17 111 19 166 21 486 20 l362 -1 16 81
c9 45 16 88 16 95 0 10 -27 11 -128 6 -117 -6 -132 -5 -175 14 -82 36 -82 37
-81 467 1 364 13 773 39 1296 14 292 23 335 81 376 29 21 105 46 177 58 20 3
37 11 38 18 0 7 4 45 8 85 l7 72 -41 -1 c-22 -1 -71 -6 -110 -12z"/>
<path d="M8690 4967 c-36 -6 -211 -11 -396 -11 l-331 0 -12 -75 c-6 -42 -11
-81 -11 -88 0 -8 35 -12 110 -15 102 -3 111 -5 135 -28 18 -18 28 -44 35 -85
11 -67 12 -1118 2 -1605 -7 -294 -8 -307 -31 -353 -36 -73 -116 -121 -252
-151 -25 -5 -27 -11 -37 -88 -6 -46 -9 -84 -7 -86 2 -2 36 1 77 7 141 21 461
34 660 27 223 -7 199 -17 217 88 19 105 28 97 -106 91 -102 -6 -123 -4 -152
12 -85 45 -93 98 -81 563 5 190 9 359 10 376 l0 31 133 11 c266 23 539 33 832
30 l300 -3 0 -395 c-1 -345 -3 -403 -18 -459 -31 -115 -81 -154 -217 -169
l-64 -7 -13 -65 c-7 -36 -15 -74 -17 -85 -5 -20 -1 -20 468 -20 l474 -1 11 71
c7 38 14 80 17 91 6 22 4 22 -128 20 -213 -2 -221 9 -226 294 -5 268 21 1133
48 1613 12 223 35 259 185 292 l73 17 7 79 c4 44 5 83 1 86 -3 3 -65 -1 -138
-8 -82 -9 -245 -14 -426 -14 -287 1 -293 0 -297 -20 -13 -63 -24 -149 -20
-153 2 -3 43 -4 90 -3 107 3 150 -10 173 -52 15 -29 17 -76 20 -459 l3 -426
-48 -6 c-168 -23 -290 -28 -725 -33 l-488 -5 0 57 c0 130 21 607 31 700 18
169 48 209 178 239 35 8 68 21 72 28 5 7 9 32 9 54 0 23 3 56 6 73 6 31 6 31
-32 30 -22 -1 -68 -6 -104 -12z"/>
<path d="M13980 4967 c-51 -8 -273 -12 -730 -12 -3 0 -28 -170 -25 -173 2 -3
47 -4 99 -3 110 2 146 -11 167 -61 12 -27 14 -195 14 -988 0 -896 -1 -958 -18
-1007 -25 -72 -77 -116 -169 -144 -40 -12 -75 -23 -77 -25 -7 -6 -28 -174 -22
-174 3 0 60 7 126 15 66 8 197 18 290 21 162 6 693 -7 1025 -26 127 -7 157 -6
166 5 6 8 16 65 23 127 7 62 32 232 56 378 24 146 41 268 37 272 -4 4 -38 3
-77 -2 -38 -5 -78 -9 -87 -10 -10 0 -18 -8 -18 -18 0 -39 -61 -266 -88 -325
-49 -107 -115 -165 -227 -196 -72 -20 -328 -32 -438 -21 -121 12 -154 29 -186
93 -20 41 -24 66 -28 195 -13 350 36 1603 68 1769 15 75 62 116 163 138 84 19
78 10 90 133 l5 52 -37 -1 c-20 -1 -66 -6 -102 -12z"/>
<path d="M103 2078 c-50 -17 -88 -62 -88 -108 0 -42 21 -72 70 -99 28 -15 575
-16 7415 -16 6840 0 7387 1 7415 16 49 27 70 57 70 99 0 48 -41 95 -94 110
-51 14 -14744 12 -14788 -2z"/>
<path d="M10 1460 l0 -110 170 0 170 0 0 -675 0 -675 145 0 145 0 0 675 0 675
160 0 c157 0 160 0 164 23 8 33 26 164 26 181 0 14 -53 16 -490 16 l-490 0 0
-110z"/>
<path d="M2410 786 l0 -786 145 0 145 0 0 315 0 316 71 -3 72 -3 136 -312 136
-313 153 0 c83 0 152 2 152 5 0 2 -72 154 -160 337 -88 182 -160 335 -160 339
0 4 19 18 43 32 162 95 239 302 192 520 -35 165 -132 260 -320 313 -48 14
-116 18 -332 21 l-273 5 0 -786z m495 560 c105 -32 151 -118 143 -265 -10
-172 -71 -230 -250 -239 l-98 -5 0 262 0 261 78 0 c44 0 100 -7 127 -14z"/>
<path d="M5106 1562 c-2 -4 -90 -350 -196 -770 -105 -419 -193 -769 -196 -777
-5 -13 15 -15 138 -15 l145 0 38 185 38 185 203 0 c203 0 204 0 209 -22 3 -13
19 -88 35 -168 17 -80 33 -153 36 -162 5 -16 21 -18 151 -18 112 0 144 3 141
13 -3 6 -92 360 -199 784 l-194 773 -172 0 c-94 0 -174 -3 -177 -8z m254 -602
c39 -190 73 -353 76 -362 5 -17 -7 -18 -155 -18 -89 0 -161 4 -161 9 0 5 34
172 75 372 41 200 75 369 76 374 2 33 26 -69 89 -375z"/>
<path d="M7260 785 l0 -785 145 0 145 0 0 785 0 785 -145 0 -145 0 0 -785z"/>
<path d="M9100 785 l0 -785 125 0 125 0 0 424 c0 383 -16 753 -36 831 -4 16
-3 17 5 5 8 -13 391 -1242 391 -1255 0 -3 83 -5 185 -5 l185 0 0 785 0 785
-126 0 -126 0 5 -547 c3 -344 9 -577 16 -627 7 -43 11 -82 9 -87 -2 -5 -91
276 -198 624 l-195 632 -183 3 -182 2 0 -785z"/>
<path d="M11630 785 l0 -785 390 0 390 0 0 105 0 105 -245 0 -245 0 0 240 0
240 200 0 200 0 0 105 0 105 -200 0 -200 0 0 230 0 230 232 2 233 3 11 85 c7
47 13 93 13 103 1 16 -24 17 -389 17 l-390 0 0 -785z"/>
<path d="M13900 786 l0 -786 140 0 140 0 0 315 0 315 73 0 73 0 134 -307 c73
-170 136 -311 140 -316 4 -4 74 -6 157 -5 l151 3 -164 339 c-90 187 -163 340
-161 341 1 1 28 18 59 38 142 90 206 249 186 461 -14 145 -89 259 -209 318
-112 54 -153 60 -446 65 l-273 5 0 -786z m525 547 c81 -42 108 -99 109 -229 0
-82 -2 -97 -29 -150 -42 -82 -92 -107 -227 -112 l-98 -4 0 262 0 263 103 -5
c76 -4 112 -10 142 -25z"/>
</g>
</svg>
